<?xml version="1.0" encoding="UTF-8" standalone="no"?><!DOCTYPE svg PUBLIC "-//W3C//DTD SVG 1.1//EN" "http://www.w3.org/Graphics/SVG/1.1/DTD/svg11.dtd"><!-- Generated by graphviz version 2.40.1 (20161225.0304)
 --><!-- Title: G Pages: 1 --><svg xmlns="http://www.w3.org/2000/svg" xmlns:xlink="http://www.w3.org/1999/xlink" width="1204pt" height="589pt" viewBox="0.00 0.00 1203.98 588.89">
<g id="graph0" class="graph" transform="scale(1 1) rotate(0) translate(4 584.8919)">
<title>G</title>
<polygon fill="#ffffff" stroke="transparent" points="-4,4 -4,-584.8919 1199.9762,-584.8919 1199.9762,4 -4,4"/>
<g id="clust1" class="cluster">
<title>cluster_0</title>
<polygon fill="#d3d3d3" stroke="#d3d3d3" points="372.5229,-400.0919 372.5229,-452.0919 479.2452,-452.0919 479.2452,-400.0919 372.5229,-400.0919"/>
</g>
<g id="clust2" class="cluster">
<title>cluster_1</title>
<polygon fill="#d3d3d3" stroke="#d3d3d3" points="374.6658,-340.0919 374.6658,-392.0919 477.1023,-392.0919 477.1023,-340.0919 374.6658,-340.0919"/>
</g>
<g id="clust3" class="cluster">
<title>cluster_2</title>
<polygon fill="#d3d3d3" stroke="#d3d3d3" points="364.4796,-126.0919 364.4796,-178.0919 487.2885,-178.0919 487.2885,-126.0919 364.4796,-126.0919"/>
</g>
<g id="clust4" class="cluster">
<title>cluster_3</title>
<polygon fill="#d3d3d3" stroke="#d3d3d3" points="337.1157,-66.0919 337.1157,-118.0919 514.6524,-118.0919 514.6524,-66.0919 337.1157,-66.0919"/>
</g>
<!-- *COMIENZO_DE_LINEA -->
<g id="node1" class="node">
<title>*COMIENZO_DE_LINEA</title>
<polygon fill="none" stroke="#000000" points="171.2582,-278.0919 .2468,-278.0919 .2468,-242.0919 171.2582,-242.0919 171.2582,-278.0919"/>
<text text-anchor="middle" x="85.7525" y="-255.8919" font-family="Times,serif" font-size="14.00" fill="#000000">*COMIENZO_DE_LINEA</text>
</g>
<!-- *COMIENZO_DE_LINEA&#45;&gt;*COMIENZO_DE_LINEA -->
<!-- *COMIENZO_DE_LINEA&#45;&gt;*COMIENZO_DE_LINEA -->
<!-- *COMIENZO_DE_LINEA&#45;&gt;*COMIENZO_DE_LINEA -->
<g id="edge6" class="edge">
<title>*COMIENZO_DE_LINEA-&gt;*COMIENZO_DE_LINEA</title>
<path fill="none" stroke="#000000" d="M69.8117,-278.17C55.7065,-302.5013 61.0201,-332.0919 85.7525,-332.0919 107.3934,-332.0919 114.1667,-309.4366 106.0725,-287.4727"/>
<polygon fill="#000000" stroke="#000000" points="109.1192,-285.727 101.6933,-278.17 102.7858,-288.7084 109.1192,-285.727"/>
<text text-anchor="middle" x="85.7525" y="-336.2919" font-family="Times,serif" font-size="14.00" fill="#000000"> c = '/n'</text>
</g>
<!-- POSIBLE_INCLUDE_DEFINE_UNDEF -->
<g id="node6" class="node">
<title>POSIBLE_INCLUDE_DEFINE_UNDEF</title>
<ellipse fill="none" stroke="#000000" cx="425.8841" cy="-259.0919" rx="173.6161" ry="18"/>
<text text-anchor="middle" x="425.8841" y="-254.8919" font-family="Times,serif" font-size="14.00" fill="#000000">POSIBLE_INCLUDE_DEFINE_UNDEF</text>
</g>
<!-- *COMIENZO_DE_LINEA&#45;&gt;POSIBLE_INCLUDE_DEFINE_UNDEF -->
<g id="edge1" class="edge">
<title>*COMIENZO_DE_LINEA-&gt;POSIBLE_INCLUDE_DEFINE_UNDEF</title>
<path fill="none" stroke="#000000" d="M171.5821,-259.8396C193.2895,-259.7757 217.4466,-259.7047 241.9904,-259.6326"/>
<polygon fill="#000000" stroke="#000000" points="242.1622,-263.1322 252.1518,-259.6027 242.1415,-256.1322 242.1622,-263.1322"/>
<text text-anchor="middle" x="211.9155" y="-263.2919" font-family="Times,serif" font-size="14.00" fill="#000000"> c = '#'</text>
</g>
<!-- POSIBLE_COMENTARIO -->
<g id="node7" class="node">
<title>POSIBLE_COMENTARIO</title>
<ellipse fill="none" stroke="#000000" cx="1076.5859" cy="-203.0919" rx="119.2807" ry="18"/>
<text text-anchor="middle" x="1076.5859" y="-198.8919" font-family="Times,serif" font-size="14.00" fill="#000000">POSIBLE_COMENTARIO</text>
</g>
<!-- *COMIENZO_DE_LINEA&#45;&gt;POSIBLE_COMENTARIO -->
<g id="edge2" class="edge">
<title>*COMIENZO_DE_LINEA-&gt;POSIBLE_COMENTARIO</title>
<path fill="none" stroke="#000000" d="M93.6282,-278.2374C113.1142,-320.3475 168.1781,-423.5919 252.326,-456.0919 514.3359,-557.2866 635.4375,-622.0644 883.3745,-490.0919 988.882,-433.9322 1047.1048,-291.675 1067.8046,-231.0984"/>
<polygon fill="#000000" stroke="#000000" points="1071.1829,-232.0313 1071.0223,-221.4377 1064.5416,-229.8192 1071.1829,-232.0313"/>
<text text-anchor="middle" x="638.1026" y="-568.2919" font-family="Times,serif" font-size="14.00" fill="#000000"> c = '/'</text>
</g>
<!-- CARACTER_COMUN -->
<g id="node8" class="node">
<title>CARACTER_COMUN</title>
<ellipse fill="none" stroke="#000000" cx="780.0688" cy="-243.0919" rx="103.1118" ry="18"/>
<text text-anchor="middle" x="780.0688" y="-238.8919" font-family="Times,serif" font-size="14.00" fill="#000000">CARACTER_COMUN</text>
</g>
<!-- *COMIENZO_DE_LINEA&#45;&gt;CARACTER_COMUN -->
<g id="edge3" class="edge">
<title>*COMIENZO_DE_LINEA-&gt;CARACTER_COMUN</title>
<path fill="none" stroke="#000000" d="M137.894,-242.0441C170.3614,-231.8197 213.2446,-220.1312 252.326,-215.2919 405.4305,-196.3336 445.6178,-203.5237 599.4421,-215.2919 632.5557,-217.8252 668.7875,-222.9345 700.0518,-228.0897"/>
<polygon fill="#000000" stroke="#000000" points="699.5765,-231.5588 710.0178,-229.7619 700.7348,-224.6553 699.5765,-231.5588"/>
<text text-anchor="middle" x="425.8841" y="-219.2919" font-family="Times,serif" font-size="14.00" fill="#000000">EOC</text>
</g>
<!-- DEFINE -->
<g id="node2" class="node">
<title>DEFINE</title>
<ellipse fill="none" stroke="#000000" cx="425.8841" cy="-426.0919" rx="45.2227" ry="18"/>
<text text-anchor="middle" x="425.8841" y="-421.8919" font-family="Times,serif" font-size="14.00" fill="#000000">DEFINE</text>
</g>
<!-- DEFINE&#45;&gt;*COMIENZO_DE_LINEA -->
<g id="edge14" class="edge">
<title>DEFINE-&gt;*COMIENZO_DE_LINEA</title>
<path fill="none" stroke="#000000" d="M381.3348,-422.5539C345.6429,-418.7393 294.7071,-411.071 252.326,-396.0919 190.9961,-374.4156 135.9885,-319.2472 107.1066,-286.2173"/>
<polygon fill="#000000" stroke="#000000" points="109.5072,-283.6402 100.3387,-278.3307 104.195,-288.1988 109.5072,-283.6402"/>
<text text-anchor="middle" x="211.9155" y="-391.2919" font-family="Times,serif" font-size="14.00" fill="#000000">c = '/n' </text>
</g>
<!-- DEFINE&#45;&gt;CARACTER_COMUN -->
<g id="edge17" class="edge">
<title>DEFINE-&gt;CARACTER_COMUN</title>
<path fill="none" stroke="#000000" d="M466.4481,-434.1625C517.4527,-441.811 604.8502,-446.2806 658.7631,-401.0919 680.7535,-382.66 661.7093,-363.5192 676.7631,-339.0919 694.6098,-310.1327 723.5135,-284.3304 746.2157,-266.7883"/>
<polygon fill="#000000" stroke="#000000" points="748.3958,-269.5279 754.2671,-260.7086 744.1775,-263.9416 748.3958,-269.5279"/>
<text text-anchor="middle" x="638.1026" y="-427.2919" font-family="Times,serif" font-size="14.00" fill="#000000">EOC</text>
</g>
<!-- ATENDER_DEFINE -->
<g id="node9" class="node">
<title>ATENDER_DEFINE</title>
<ellipse fill="none" stroke="#000000" cx="780.0688" cy="-463.0919" rx="95.485" ry="18"/>
<text text-anchor="middle" x="780.0688" y="-458.8919" font-family="Times,serif" font-size="14.00" fill="#000000">ATENDER_DEFINE</text>
</g>
<!-- DEFINE&#45;&gt;ATENDER_DEFINE -->
<g id="edge20" class="edge">
<title>DEFINE-&gt;ATENDER_DEFINE</title>
<path fill="none" stroke="#000000" d="M470.0257,-430.7032C523.8454,-436.3255 616.2721,-445.9808 686.244,-453.2905"/>
<polygon fill="#000000" stroke="#000000" points="686.0879,-456.7931 696.3975,-454.3512 686.8153,-449.831 686.0879,-456.7931"/>
<text text-anchor="middle" x="638.1026" y="-470.0919" font-family="Times,serif" font-size="14.00" fill="#000000">c = '/n </text>
<text text-anchor="middle" x="638.1026" y="-453.2919" font-family="Times,serif" font-size="14.00" fill="#000000"> ????</text>
</g>
<!-- UNDEF -->
<g id="node3" class="node">
<title>UNDEF</title>
<ellipse fill="none" stroke="#000000" cx="425.8841" cy="-366.0919" rx="43.4377" ry="18"/>
<text text-anchor="middle" x="425.8841" y="-361.8919" font-family="Times,serif" font-size="14.00" fill="#000000">UNDEF</text>
</g>
<!-- UNDEF&#45;&gt;*COMIENZO_DE_LINEA -->
<g id="edge15" class="edge">
<title>UNDEF-&gt;*COMIENZO_DE_LINEA</title>
<path fill="none" stroke="#000000" d="M382.6622,-364.2411C334.184,-360.9755 253.9152,-351.9598 189.505,-327.0919 162.7262,-316.753 135.5815,-298.9046 115.777,-284.2284"/>
<polygon fill="#000000" stroke="#000000" points="117.8477,-281.4062 107.7612,-278.1639 113.6243,-286.9886 117.8477,-281.4062"/>
<text text-anchor="middle" x="211.9155" y="-344.2919" font-family="Times,serif" font-size="14.00" fill="#000000">c = '/n' </text>
</g>
<!-- UNDEF&#45;&gt;CARACTER_COMUN -->
<g id="edge18" class="edge">
<title>UNDEF-&gt;CARACTER_COMUN</title>
<path fill="none" stroke="#000000" d="M468.1056,-361.7133C503.7821,-357.2133 555.8816,-348.7456 599.4421,-334.0919 651.3787,-316.6205 707.116,-286.6344 742.7207,-265.8836"/>
<polygon fill="#000000" stroke="#000000" points="744.9251,-268.6473 751.7664,-260.5573 741.3733,-262.6153 744.9251,-268.6473"/>
<text text-anchor="middle" x="638.1026" y="-330.2919" font-family="Times,serif" font-size="14.00" fill="#000000">EOC</text>
</g>
<!-- ATENDER_UNDEF -->
<g id="node10" class="node">
<title>ATENDER_UNDEF</title>
<ellipse fill="none" stroke="#000000" cx="780.0688" cy="-366.0919" rx="93.1987" ry="18"/>
<text text-anchor="middle" x="780.0688" y="-361.8919" font-family="Times,serif" font-size="14.00" fill="#000000">ATENDER_UNDEF</text>
</g>
<!-- UNDEF&#45;&gt;ATENDER_UNDEF -->
<g id="edge21" class="edge">
<title>UNDEF-&gt;ATENDER_UNDEF</title>
<path fill="none" stroke="#000000" d="M469.3141,-366.0919C520.6364,-366.0919 607.7659,-366.0919 676.7284,-366.0919"/>
<polygon fill="#000000" stroke="#000000" points="676.7649,-369.592 686.7649,-366.0919 676.7649,-362.592 676.7649,-369.592"/>
<text text-anchor="middle" x="638.1026" y="-387.0919" font-family="Times,serif" font-size="14.00" fill="#000000">c = '/n </text>
<text text-anchor="middle" x="638.1026" y="-370.2919" font-family="Times,serif" font-size="14.00" fill="#000000"> ????</text>
</g>
<!-- INCLUDE -->
<g id="node4" class="node">
<title>INCLUDE</title>
<ellipse fill="none" stroke="#000000" cx="425.8841" cy="-152.0919" rx="53.309" ry="18"/>
<text text-anchor="middle" x="425.8841" y="-147.8919" font-family="Times,serif" font-size="14.00" fill="#000000">INCLUDE</text>
</g>
<!-- INCLUDE&#45;&gt;*COMIENZO_DE_LINEA -->
<g id="edge16" class="edge">
<title>INCLUDE-&gt;*COMIENZO_DE_LINEA</title>
<path fill="none" stroke="#000000" d="M373.0751,-148.7096C323.734,-147.4994 248.9642,-150.7448 189.505,-175.2919 157.6626,-188.4377 127.9429,-214.7493 108.5446,-234.5967"/>
<polygon fill="#000000" stroke="#000000" points="106.0002,-232.1933 101.6324,-241.8459 111.0663,-237.0238 106.0002,-232.1933"/>
<text text-anchor="middle" x="211.9155" y="-179.2919" font-family="Times,serif" font-size="14.00" fill="#000000">c = '/n' </text>
</g>
<!-- INCLUDE&#45;&gt;CARACTER_COMUN -->
<g id="edge19" class="edge">
<title>INCLUDE-&gt;CARACTER_COMUN</title>
<path fill="none" stroke="#000000" d="M476.0716,-158.712C523.6945,-165.6727 596.9673,-178.1523 658.7631,-196.2919 683.3847,-203.5193 710.0592,-213.5562 732.1084,-222.4823"/>
<polygon fill="#000000" stroke="#000000" points="730.9911,-225.8069 741.5716,-226.3594 733.645,-219.3295 730.9911,-225.8069"/>
<text text-anchor="middle" x="638.1026" y="-200.2919" font-family="Times,serif" font-size="14.00" fill="#000000">EOC</text>
</g>
<!-- ATENDER_INCLUDE -->
<g id="node11" class="node">
<title>ATENDER_INCLUDE</title>
<ellipse fill="none" stroke="#000000" cx="780.0688" cy="-138.0919" rx="103.0713" ry="18"/>
<text text-anchor="middle" x="780.0688" y="-133.8919" font-family="Times,serif" font-size="14.00" fill="#000000">ATENDER_INCLUDE</text>
</g>
<!-- INCLUDE&#45;&gt;ATENDER_INCLUDE -->
<g id="edge22" class="edge">
<title>INCLUDE-&gt;ATENDER_INCLUDE</title>
<path fill="none" stroke="#000000" d="M477.8765,-147.867C516.3828,-144.934 570.1483,-141.2494 617.4421,-139.4919 633.2141,-138.9058 649.852,-138.5089 666.2259,-138.2465"/>
<polygon fill="#000000" stroke="#000000" points="666.4282,-141.744 676.3767,-138.1 666.3272,-134.7448 666.4282,-141.744"/>
<text text-anchor="middle" x="638.1026" y="-160.0919" font-family="Times,serif" font-size="14.00" fill="#000000">c = '/n </text>
<text text-anchor="middle" x="638.1026" y="-143.2919" font-family="Times,serif" font-size="14.00" fill="#000000"> ????</text>
</g>
<!-- COMENTARIOS -->
<g id="node5" class="node">
<title>COMENTARIOS</title>
<ellipse fill="none" stroke="#000000" cx="425.8841" cy="-92.0919" rx="80.5373" ry="18"/>
<text text-anchor="middle" x="425.8841" y="-87.8919" font-family="Times,serif" font-size="14.00" fill="#000000">COMENTARIOS</text>
</g>
<!-- COMENTARIOS&#45;&gt;*COMIENZO_DE_LINEA -->
<g id="edge28" class="edge">
<title>COMENTARIOS-&gt;*COMIENZO_DE_LINEA</title>
<path fill="none" stroke="#000000" d="M345.4512,-94.1312C296.9896,-98.6875 235.8872,-110.5934 189.505,-140.2919 152.0326,-164.2855 120.5001,-205.7726 102.3568,-233.0765"/>
<polygon fill="#000000" stroke="#000000" points="99.2377,-231.4533 96.7279,-241.7466 105.1089,-235.2651 99.2377,-231.4533"/>
<text text-anchor="middle" x="211.9155" y="-144.2919" font-family="Times,serif" font-size="14.00" fill="#000000">c = '/n'</text>
</g>
<!-- COMENTARIOS&#45;&gt;CARACTER_COMUN -->
<g id="edge29" class="edge">
<title>COMENTARIOS-&gt;CARACTER_COMUN</title>
<path fill="none" stroke="#000000" d="M492.4505,-81.8672C543.1584,-77.8649 611.9913,-81.0504 658.7631,-117.2919 676.7074,-131.1962 663.1679,-146.9123 676.7631,-165.0919 693.5604,-187.5533 718.5328,-206.6526 739.717,-220.3295"/>
<polygon fill="#000000" stroke="#000000" points="737.8952,-223.3183 748.2262,-225.6684 741.6156,-217.3888 737.8952,-223.3183"/>
<text text-anchor="middle" x="638.1026" y="-121.2919" font-family="Times,serif" font-size="14.00" fill="#000000">EOC</text>
</g>
<!-- POSIBLE_INCLUDE_DEFINE_UNDEF&#45;&gt;*COMIENZO_DE_LINEA -->
<g id="edge23" class="edge">
<title>POSIBLE_INCLUDE_DEFINE_UNDEF-&gt;*COMIENZO_DE_LINEA</title>
<path fill="none" stroke="#000000" d="M339.0954,-243.5036C294.3759,-237.4863 238.9834,-233.15 189.505,-238.2919 184.07,-238.8567 178.5003,-239.5837 172.9002,-240.4277"/>
<polygon fill="#000000" stroke="#000000" points="172.1207,-237.0082 162.8097,-242.0633 173.2409,-243.918 172.1207,-237.0082"/>
<text text-anchor="middle" x="211.9155" y="-242.2919" font-family="Times,serif" font-size="14.00" fill="#000000">c = '/n'</text>
</g>
<!-- POSIBLE_INCLUDE_DEFINE_UNDEF&#45;&gt;DEFINE -->
<g id="edge11" class="edge">
<title>POSIBLE_INCLUDE_DEFINE_UNDEF-&gt;DEFINE</title>
<path fill="none" stroke="#000000" d="M261.8897,-265.0079C242.5412,-272.5109 225.0468,-283.7143 211.9155,-300.0919 187.7278,-330.2592 187.7278,-356.9246 211.9155,-387.0919 249.5922,-434.0828 323.3881,-437.656 373.6647,-433.674"/>
<polygon fill="#000000" stroke="#000000" points="374.0623,-437.1523 383.7015,-432.7551 373.424,-430.1815 374.0623,-437.1523"/>
</g>
<!-- POSIBLE_INCLUDE_DEFINE_UNDEF&#45;&gt;UNDEF -->
<g id="edge12" class="edge">
<title>POSIBLE_INCLUDE_DEFINE_UNDEF-&gt;UNDEF</title>
<path fill="none" stroke="#000000" d="M268.6992,-266.7427C220.1055,-275.2381 185.4701,-292.1087 211.9155,-325.0919 249.9879,-372.5763 324.7371,-376.5653 375.0127,-372.9775"/>
<polygon fill="#000000" stroke="#000000" points="375.3615,-376.4607 385.0353,-372.1399 374.7785,-369.485 375.3615,-376.4607"/>
</g>
<!-- POSIBLE_INCLUDE_DEFINE_UNDEF&#45;&gt;INCLUDE -->
<g id="edge13" class="edge">
<title>POSIBLE_INCLUDE_DEFINE_UNDEF-&gt;INCLUDE</title>
<path fill="none" stroke="#000000" d="M261.8897,-253.1759C242.5412,-245.6729 225.0468,-234.4695 211.9155,-218.0919 169.3846,-165.0467 284.8378,-153.676 362.2592,-151.7954"/>
<polygon fill="#000000" stroke="#000000" points="362.5099,-155.2913 372.4396,-151.5966 362.3732,-148.2926 362.5099,-155.2913"/>
</g>
<!-- POSIBLE_INCLUDE_DEFINE_UNDEF&#45;&gt;CARACTER_COMUN -->
<g id="edge24" class="edge">
<title>POSIBLE_INCLUDE_DEFINE_UNDEF-&gt;CARACTER_COMUN</title>
<path fill="none" stroke="#000000" d="M585.1041,-251.8993C613.7002,-250.6075 642.9242,-249.2873 669.7528,-248.0753"/>
<polygon fill="#000000" stroke="#000000" points="670.0797,-251.5642 679.9115,-247.6164 669.7637,-244.5714 670.0797,-251.5642"/>
<text text-anchor="middle" x="638.1026" y="-254.2919" font-family="Times,serif" font-size="14.00" fill="#000000">EOC</text>
</g>
<!-- POSIBLE_COMENTARIO&#45;&gt;*COMIENZO_DE_LINEA -->
<g id="edge26" class="edge">
<title>POSIBLE_COMENTARIO-&gt;*COMIENZO_DE_LINEA</title>
<path fill="none" stroke="#000000" d="M1057.0057,-185.2986C1024.0322,-156.5947 954.0722,-100.9786 883.3745,-78.0919 616.4563,8.3166 515.5958,34.8656 252.326,-62.0919 172.6331,-91.4413 119.8015,-185.4244 97.6193,-232.5727"/>
<polygon fill="#000000" stroke="#000000" points="94.3372,-231.3337 93.3525,-241.8827 100.7007,-234.2502 94.3372,-231.3337"/>
<text text-anchor="middle" x="638.1026" y="-18.2919" font-family="Times,serif" font-size="14.00" fill="#000000">c = '/n'</text>
</g>
<!-- POSIBLE_COMENTARIO&#45;&gt;COMENTARIOS -->
<g id="edge25" class="edge">
<title>POSIBLE_COMENTARIO-&gt;COMENTARIOS</title>
<path fill="none" stroke="#000000" d="M1048.0726,-185.459C1011.4554,-163.7892 945.2352,-127.8395 883.3745,-111.0919 757.0895,-76.9026 604.0943,-78.8205 510.9273,-84.5503"/>
<polygon fill="#000000" stroke="#000000" points="510.4605,-81.073 500.7064,-85.209 510.9108,-88.0585 510.4605,-81.073"/>
</g>
<!-- POSIBLE_COMENTARIO&#45;&gt;CARACTER_COMUN -->
<g id="edge27" class="edge">
<title>POSIBLE_COMENTARIO-&gt;CARACTER_COMUN</title>
<path fill="none" stroke="#000000" d="M987.5024,-215.1092C951.0371,-220.0284 908.8581,-225.7183 872.0947,-230.6777"/>
<polygon fill="#000000" stroke="#000000" points="871.3206,-227.2503 861.8783,-232.0558 872.2565,-234.1875 871.3206,-227.2503"/>
<text text-anchor="middle" x="920.285" y="-230.2919" font-family="Times,serif" font-size="14.00" fill="#000000">EOC</text>
</g>
<!-- CARACTER_COMUN&#45;&gt;*COMIENZO_DE_LINEA -->
<g id="edge10" class="edge">
<title>CARACTER_COMUN-&gt;*COMIENZO_DE_LINEA</title>
<path fill="none" stroke="#000000" d="M728.4782,-258.7717C692.6596,-268.8154 643.6232,-280.9055 599.4421,-286.0919 418.471,-307.3361 369.8634,-306.0283 189.505,-280.0919 186.831,-279.7074 184.1214,-279.3009 181.389,-278.8763"/>
<polygon fill="#000000" stroke="#000000" points="181.8494,-275.4054 171.4192,-277.2663 180.7333,-282.3158 181.8494,-275.4054"/>
<text text-anchor="middle" x="425.8841" y="-304.2919" font-family="Times,serif" font-size="14.00" fill="#000000"> c = '/n'</text>
</g>
<!-- CARACTER_COMUN&#45;&gt;POSIBLE_COMENTARIO -->
<g id="edge9" class="edge">
<title>CARACTER_COMUN-&gt;POSIBLE_COMENTARIO</title>
<path fill="none" stroke="#000000" d="M821.1356,-226.5319C844.2831,-218.074 873.9717,-208.6638 901.3745,-204.2919 917.0467,-201.7915 933.608,-200.2605 950.0452,-199.4074"/>
<polygon fill="#000000" stroke="#000000" points="950.4169,-202.8946 960.2546,-198.9613 950.1113,-195.9013 950.4169,-202.8946"/>
<text text-anchor="middle" x="920.285" y="-208.2919" font-family="Times,serif" font-size="14.00" fill="#000000"> c = '/'</text>
</g>
<!-- CARACTER_COMUN&#45;&gt;CARACTER_COMUN -->
<!-- CARACTER_COMUN&#45;&gt;CARACTER_COMUN -->
<g id="edge8" class="edge">
<title>CARACTER_COMUN-&gt;CARACTER_COMUN</title>
<path fill="none" stroke="#000000" d="M759.2085,-260.791C747.6857,-278.0878 754.6391,-297.0919 780.0688,-297.0919 800.9291,-297.0919 809.3565,-284.3038 805.351,-270.1603"/>
<polygon fill="#000000" stroke="#000000" points="808.3625,-268.3406 800.9291,-260.791 802.0321,-271.3283 808.3625,-268.3406"/>
<text text-anchor="middle" x="780.0688" y="-301.2919" font-family="Times,serif" font-size="14.00" fill="#000000">EOC</text>
</g>
</g>
</svg>