<?xml version="1.0" encoding="UTF-8" standalone="no"?><!DOCTYPE svg PUBLIC "-//W3C//DTD SVG 1.1//EN" "http://www.w3.org/Graphics/SVG/1.1/DTD/svg11.dtd"><!-- Generated by graphviz version 2.40.1 (20161225.0304)
 --><!-- Title: UNDEF Pages: 1 --><svg xmlns="http://www.w3.org/2000/svg" xmlns:xlink="http://www.w3.org/1999/xlink" width="2956pt" height="659pt" viewBox="0.00 0.00 2955.68 658.80">
<g id="graph0" class="graph" transform="scale(1 1) rotate(0) translate(4 654.8)">
<title>UNDEF</title>
<polygon fill="#ffffff" stroke="transparent" points="-4,4 -4,-654.8 2951.6826,-654.8 2951.6826,4 -4,4"/>
<g id="clust1" class="cluster">
<title>cluster_0</title>
<polygon fill="#d3d3d3" stroke="#d3d3d3" points="416.0465,-286 416.0465,-363 2638.2595,-363 2638.2595,-286 416.0465,-286"/>
<text text-anchor="middle" x="1527.153" y="-346.4" font-family="Times,serif" font-size="14.00" fill="#000000">UNDEF</text>
</g>
<!-- #u -->
<g id="node1" class="node">
<title>#u</title>
<ellipse fill="#ffffff" stroke="#ffffff" cx="451.0465" cy="-312" rx="27" ry="18"/>
<text text-anchor="middle" x="451.0465" y="-307.8" font-family="Times,serif" font-size="14.00" fill="#000000">#u</text>
</g>
<!-- #un -->
<g id="node2" class="node">
<title>#un</title>
<ellipse fill="#ffffff" stroke="#ffffff" cx="616.4769" cy="-312" rx="27" ry="18"/>
<text text-anchor="middle" x="616.4769" y="-307.8" font-family="Times,serif" font-size="14.00" fill="#000000">#un</text>
</g>
<!-- #u&#45;&gt;#un -->
<g id="edge1" class="edge">
<title>#u-&gt;#un</title>
<path fill="none" stroke="#000000" d="M478.364,-312C505.8649,-312 548.4862,-312 579.1076,-312"/>
<polygon fill="#000000" stroke="#000000" points="579.3939,-315.5001 589.3938,-312 579.3938,-308.5001 579.3939,-315.5001"/>
<text text-anchor="middle" x="533.7617" y="-316.2" font-family="Times,serif" font-size="14.00" fill="#000000">c = 'n'</text>
</g>
<!-- *COMIENZO_DE_LINEA -->
<g id="node11" class="node">
<title>*COMIENZO_DE_LINEA</title>
<ellipse fill="none" stroke="#000000" cx="2829.3816" cy="-482" rx="118.1024" ry="18"/>
<text text-anchor="middle" x="2829.3816" y="-477.8" font-family="Times,serif" font-size="14.00" fill="#000000">*COMIENZO_DE_LINEA</text>
</g>
<!-- #u&#45;&gt;*COMIENZO_DE_LINEA -->
<g id="edge10" class="edge">
<title>#u-&gt;*COMIENZO_DE_LINEA</title>
<path fill="none" stroke="#000000" d="M451.77,-330.2347C454.9595,-398.3518 470.5608,-634 533.7617,-634 533.7617,-634 533.7617,-634 2529.1257,-634 2640.3703,-634 2752.2296,-549.9187 2802.2525,-506.8273"/>
<polygon fill="#000000" stroke="#000000" points="2804.7978,-509.2511 2810.0212,-500.0333 2800.1896,-503.9818 2804.7978,-509.2511"/>
<text text-anchor="middle" x="1218.9827" y="-638.2" font-family="Times,serif" font-size="14.00" fill="#000000">c = '/n'</text>
</g>
<!-- CARACTER_COMUN -->
<g id="node12" class="node">
<title>CARACTER_COMUN</title>
<ellipse fill="none" stroke="#000000" cx="2829.3816" cy="-152" rx="103.1118" ry="18"/>
<text text-anchor="middle" x="2829.3816" y="-147.8" font-family="Times,serif" font-size="14.00" fill="#000000">CARACTER_COMUN</text>
</g>
<!-- #u&#45;&gt;CARACTER_COMUN -->
<g id="edge19" class="edge">
<title>#u-&gt;CARACTER_COMUN</title>
<path fill="none" stroke="#000000" d="M451.9102,-293.877C455.5687,-227.2885 472.5403,0 533.7617,0 533.7617,0 533.7617,0 2529.1257,0 2640.647,0 2752.7862,-84.5001 2802.6247,-127.4935"/>
<polygon fill="#000000" stroke="#000000" points="2800.5293,-130.3109 2810.3581,-134.2662 2805.1411,-125.0448 2800.5293,-130.3109"/>
<text text-anchor="middle" x="1218.9827" y="-4.2" font-family="Times,serif" font-size="14.00" fill="#000000"> EOC</text>
</g>
<!-- #und -->
<g id="node3" class="node">
<title>#und</title>
<ellipse fill="#ffffff" stroke="#ffffff" cx="785.2577" cy="-312" rx="30.2015" ry="18"/>
<text text-anchor="middle" x="785.2577" y="-307.8" font-family="Times,serif" font-size="14.00" fill="#000000">#und</text>
</g>
<!-- #un&#45;&gt;#und -->
<g id="edge2" class="edge">
<title>#un-&gt;#und</title>
<path fill="none" stroke="#000000" d="M643.5945,-312C670.8873,-312 713.3127,-312 744.626,-312"/>
<polygon fill="#000000" stroke="#000000" points="744.7814,-315.5001 754.7814,-312 744.7813,-308.5001 744.7814,-315.5001"/>
<text text-anchor="middle" x="699.1921" y="-316.2" font-family="Times,serif" font-size="14.00" fill="#000000">c = 'd'</text>
</g>
<!-- #un&#45;&gt;*COMIENZO_DE_LINEA -->
<g id="edge11" class="edge">
<title>#un-&gt;*COMIENZO_DE_LINEA</title>
<path fill="none" stroke="#000000" d="M617.8065,-330.1975C622.878,-392.8793 643.6012,-596 699.1921,-596 699.1921,-596 699.1921,-596 2529.1257,-596 2630.8006,-596 2739.9705,-538.1598 2794.3712,-504.8784"/>
<polygon fill="#000000" stroke="#000000" points="2796.2855,-507.8097 2802.9367,-499.5627 2792.5944,-501.8619 2796.2855,-507.8097"/>
<text text-anchor="middle" x="1330.2341" y="-600.2" font-family="Times,serif" font-size="14.00" fill="#000000">c = '/n'</text>
</g>
<!-- #un&#45;&gt;CARACTER_COMUN -->
<g id="edge20" class="edge">
<title>#un-&gt;CARACTER_COMUN</title>
<path fill="none" stroke="#000000" d="M617.9736,-294.0221C623.5357,-233.0645 645.5272,-38 699.1921,-38 699.1921,-38 699.1921,-38 2529.1257,-38 2630.8006,-38 2739.9705,-95.8402 2794.3712,-129.1216"/>
<polygon fill="#000000" stroke="#000000" points="2792.5944,-132.1381 2802.9367,-134.4373 2796.2855,-126.1903 2792.5944,-132.1381"/>
<text text-anchor="middle" x="1330.2341" y="-42.2" font-family="Times,serif" font-size="14.00" fill="#000000"> EOC</text>
</g>
<!-- #unde -->
<g id="node4" class="node">
<title>#unde</title>
<ellipse fill="#ffffff" stroke="#ffffff" cx="960.8902" cy="-312" rx="34.7748" ry="18"/>
<text text-anchor="middle" x="960.8902" y="-307.8" font-family="Times,serif" font-size="14.00" fill="#000000">#unde</text>
</g>
<!-- #und&#45;&gt;#unde -->
<g id="edge3" class="edge">
<title>#und-&gt;#unde</title>
<path fill="none" stroke="#000000" d="M815.8506,-312C843.4883,-312 884.5198,-312 915.8951,-312"/>
<polygon fill="#000000" stroke="#000000" points="916.1319,-315.5001 926.1319,-312 916.1318,-308.5001 916.1319,-315.5001"/>
<text text-anchor="middle" x="870.9306" y="-316.2" font-family="Times,serif" font-size="14.00" fill="#000000">c = 'e'</text>
</g>
<!-- #und&#45;&gt;*COMIENZO_DE_LINEA -->
<g id="edge12" class="edge">
<title>#und-&gt;*COMIENZO_DE_LINEA</title>
<path fill="none" stroke="#000000" d="M787.5657,-330.089C795.3131,-386.8996 822.6537,-558 870.9306,-558 870.9306,-558 870.9306,-558 2529.1257,-558 2619.5372,-558 2720.7095,-525.2151 2779.5055,-502.7112"/>
<polygon fill="#000000" stroke="#000000" points="2780.8662,-505.9375 2788.9219,-499.0559 2778.333,-499.412 2780.8662,-505.9375"/>
<text text-anchor="middle" x="1492.9158" y="-562.2" font-family="Times,serif" font-size="14.00" fill="#000000">c = '/n'</text>
</g>
<!-- #und&#45;&gt;CARACTER_COMUN -->
<g id="edge21" class="edge">
<title>#und-&gt;CARACTER_COMUN</title>
<path fill="none" stroke="#000000" d="M787.8264,-293.8733C796.1604,-238.611 824.6179,-76 870.9306,-76 870.9306,-76 870.9306,-76 2529.1257,-76 2620.0466,-76 2721.8498,-109.1554 2780.4952,-131.6681"/>
<polygon fill="#000000" stroke="#000000" points="2779.2905,-134.955 2789.879,-135.3215 2781.8301,-128.4319 2779.2905,-134.955"/>
<text text-anchor="middle" x="1492.9158" y="-80.2" font-family="Times,serif" font-size="14.00" fill="#000000"> EOC</text>
</g>
<!-- #undef -->
<g id="node5" class="node">
<title>#undef</title>
<ellipse fill="#ffffff" stroke="#ffffff" cx="1142.4703" cy="-312" rx="37.7044" ry="18"/>
<text text-anchor="middle" x="1142.4703" y="-307.8" font-family="Times,serif" font-size="14.00" fill="#000000">#undef</text>
</g>
<!-- #unde&#45;&gt;#undef -->
<g id="edge4" class="edge">
<title>#unde-&gt;#undef</title>
<path fill="none" stroke="#000000" d="M995.9007,-312C1023.8629,-312 1063.3503,-312 1094.295,-312"/>
<polygon fill="#000000" stroke="#000000" points="1094.4328,-315.5001 1104.4328,-312 1094.4327,-308.5001 1094.4328,-315.5001"/>
<text text-anchor="middle" x="1050.0728" y="-316.2" font-family="Times,serif" font-size="14.00" fill="#000000">c = 'f'</text>
</g>
<!-- #unde&#45;&gt;*COMIENZO_DE_LINEA -->
<g id="edge13" class="edge">
<title>#unde-&gt;*COMIENZO_DE_LINEA</title>
<path fill="none" stroke="#000000" d="M964.5749,-330.0948C975.3947,-380.6999 1008.9161,-520 1050.0728,-520 1050.0728,-520 1050.0728,-520 2529.1257,-520 2603.2583,-520 2686.8775,-508.4579 2747.0098,-498.0961"/>
<polygon fill="#000000" stroke="#000000" points="2747.9569,-501.4836 2757.2038,-496.312 2746.7501,-494.5884 2747.9569,-501.4836"/>
<text text-anchor="middle" x="1619.311" y="-524.2" font-family="Times,serif" font-size="14.00" fill="#000000">c = '/n'</text>
</g>
<!-- #unde&#45;&gt;CARACTER_COMUN -->
<g id="edge22" class="edge">
<title>#unde-&gt;CARACTER_COMUN</title>
<path fill="none" stroke="#000000" d="M964.9025,-294.0796C976.3298,-245.3401 1010.7695,-114 1050.0728,-114 1050.0728,-114 1050.0728,-114 2529.1257,-114 2604.9967,-114 2690.8045,-126.0897 2751.201,-136.6308"/>
<polygon fill="#000000" stroke="#000000" points="2750.9637,-140.1432 2761.4211,-138.4421 2752.1853,-133.2506 2750.9637,-140.1432"/>
<text text-anchor="middle" x="1619.311" y="-118.2" font-family="Times,serif" font-size="14.00" fill="#000000"> EOC</text>
</g>
<!-- #undef_ -->
<g id="node6" class="node">
<title>#undef_</title>
<ellipse fill="#ffffff" stroke="#ffffff" cx="1411.5749" cy="-312" rx="42.8615" ry="18"/>
<text text-anchor="middle" x="1411.5749" y="-307.8" font-family="Times,serif" font-size="14.00" fill="#000000">#undef_</text>
</g>
<!-- #undef&#45;&gt;#undef_ -->
<g id="edge5" class="edge">
<title>#undef-&gt;#undef_</title>
<path fill="none" stroke="#000000" d="M1180.4556,-312C1226.908,-312 1305.8155,-312 1358.3135,-312"/>
<polygon fill="#000000" stroke="#000000" points="1358.4436,-315.5001 1368.4436,-312 1358.4436,-308.5001 1358.4436,-315.5001"/>
<text text-anchor="middle" x="1274.6084" y="-316.2" font-family="Times,serif" font-size="14.00" fill="#000000">c = ' '</text>
</g>
<!-- #undef&#45;&gt;*COMIENZO_DE_LINEA -->
<g id="edge14" class="edge">
<title>#undef-&gt;*COMIENZO_DE_LINEA</title>
<path fill="none" stroke="#000000" d="M1147.0805,-329.8717C1159.5307,-373.5185 1198.1641,-482 1274.6084,-482 1274.6084,-482 1274.6084,-482 2529.1257,-482 2585.443,-482 2647.7021,-482 2700.8577,-482"/>
<polygon fill="#000000" stroke="#000000" points="2701.0177,-485.5001 2711.0177,-482 2701.0177,-478.5001 2701.0177,-485.5001"/>
<text text-anchor="middle" x="1880.6694" y="-486.2" font-family="Times,serif" font-size="14.00" fill="#000000">c = '/n'</text>
</g>
<!-- #undef&#45;&gt;CARACTER_COMUN -->
<g id="edge23" class="edge">
<title>#undef-&gt;CARACTER_COMUN</title>
<path fill="none" stroke="#000000" d="M1147.8128,-293.957C1161.4368,-252.1129 1201.6556,-152 1274.6084,-152 1274.6084,-152 1274.6084,-152 2529.1257,-152 2590.7128,-152 2659.4057,-152 2715.528,-152"/>
<polygon fill="#000000" stroke="#000000" points="2715.8565,-155.5001 2725.8565,-152 2715.8564,-148.5001 2715.8565,-155.5001"/>
<text text-anchor="middle" x="1880.6694" y="-156.2" font-family="Times,serif" font-size="14.00" fill="#000000"> EOC</text>
</g>
<!-- #undef_identificador -->
<g id="node7" class="node">
<title>#undef_identificador</title>
<ellipse fill="#ffffff" stroke="#ffffff" cx="1749.9902" cy="-312" rx="92.0374" ry="18"/>
<text text-anchor="middle" x="1749.9902" y="-307.8" font-family="Times,serif" font-size="14.00" fill="#000000">#undef_identificador</text>
</g>
<!-- #undef_&#45;&gt;#undef_identificador -->
<g id="edge6" class="edge">
<title>#undef_-&gt;#undef_identificador</title>
<path fill="none" stroke="#000000" d="M1454.4355,-312C1502.7195,-312 1582.8931,-312 1647.5642,-312"/>
<polygon fill="#000000" stroke="#000000" points="1647.8032,-315.5001 1657.8032,-312 1647.8032,-308.5001 1647.8032,-315.5001"/>
<text text-anchor="middle" x="1556.1134" y="-316.2" font-family="Times,serif" font-size="14.00" fill="#000000">c = '???'</text>
</g>
<!-- #undef_&#45;&gt;*COMIENZO_DE_LINEA -->
<g id="edge15" class="edge">
<title>#undef_-&gt;*COMIENZO_DE_LINEA</title>
<path fill="none" stroke="#000000" d="M1420.4002,-329.8021C1439.6625,-365.8325 1489.1666,-444 1556.1134,-444 1556.1134,-444 1556.1134,-444 2389.3313,-444 2507.2848,-444 2642.3656,-457.7195 2731.4053,-468.6714"/>
<polygon fill="#000000" stroke="#000000" points="2731.136,-472.1647 2741.4912,-469.9244 2731.999,-465.2181 2731.136,-472.1647"/>
<text text-anchor="middle" x="1991.9208" y="-448.2" font-family="Times,serif" font-size="14.00" fill="#000000">c = '/n'</text>
</g>
<!-- #undef_&#45;&gt;CARACTER_COMUN -->
<g id="edge24" class="edge">
<title>#undef_-&gt;CARACTER_COMUN</title>
<path fill="none" stroke="#000000" d="M1421.534,-294.2602C1441.9925,-260.4237 1492.2446,-190 1556.1134,-190 1556.1134,-190 1556.1134,-190 2389.3313,-190 2510.4229,-190 2649.5651,-175.5408 2738.4128,-164.4607"/>
<polygon fill="#000000" stroke="#000000" points="2738.973,-167.9179 2748.4573,-163.1957 2738.0983,-160.9728 2738.973,-167.9179"/>
<text text-anchor="middle" x="1991.9208" y="-194.2" font-family="Times,serif" font-size="14.00" fill="#000000"> EOC</text>
</g>
<!-- #undef_identificador_ -->
<g id="node8" class="node">
<title>#undef_identificador_</title>
<ellipse fill="#ffffff" stroke="#ffffff" cx="2127.4284" cy="-312" rx="96.6945" ry="18"/>
<text text-anchor="middle" x="2127.4284" y="-307.8" font-family="Times,serif" font-size="14.00" fill="#000000">#undef_identificador_</text>
</g>
<!-- #undef_identificador&#45;&gt;#undef_identificador_ -->
<g id="edge7" class="edge">
<title>#undef_identificador-&gt;#undef_identificador_</title>
<path fill="none" stroke="#000000" d="M1842.322,-312C1896.0484,-312 1964.0218,-312 2020.1212,-312"/>
<polygon fill="#000000" stroke="#000000" points="2020.4519,-315.5001 2030.4519,-312 2020.4518,-308.5001 2020.4519,-315.5001"/>
<text text-anchor="middle" x="1936.2951" y="-316.2" font-family="Times,serif" font-size="14.00" fill="#000000">c = ' '</text>
</g>
<!-- #undef_identificador&#45;&gt;*COMIENZO_DE_LINEA -->
<g id="edge16" class="edge">
<title>#undef_identificador-&gt;*COMIENZO_DE_LINEA</title>
<path fill="none" stroke="#000000" d="M1769.5667,-329.6807C1801.8241,-356.9102 1869.2725,-406 1936.2951,-406 1936.2951,-406 1936.2951,-406 2389.3313,-406 2525.1741,-406 2561.1206,-407.7535 2693.0805,-440 2718.9781,-446.3285 2747.201,-454.7627 2771.2125,-462.4122"/>
<polygon fill="#000000" stroke="#000000" points="2770.289,-465.7916 2780.8804,-465.5217 2772.4324,-459.1278 2770.289,-465.7916"/>
<text text-anchor="middle" x="2262.9361" y="-410.2" font-family="Times,serif" font-size="14.00" fill="#000000">c = '/n'</text>
</g>
<!-- #undef_identificador&#45;&gt;CARACTER_COMUN -->
<g id="edge25" class="edge">
<title>#undef_identificador-&gt;CARACTER_COMUN</title>
<path fill="none" stroke="#000000" d="M1772.335,-294.3908C1805.9017,-269.7594 1872.2533,-228 1936.2951,-228 1936.2951,-228 1936.2951,-228 2389.3313,-228 2524.9033,-228 2560.6374,-228.9584 2693.0805,-200 2722.854,-193.4901 2755.0629,-182.3498 2780.6915,-172.4396"/>
<polygon fill="#000000" stroke="#000000" points="2782.1458,-175.6287 2790.1729,-168.7138 2779.5856,-169.1137 2782.1458,-175.6287"/>
<text text-anchor="middle" x="2262.9361" y="-232.2" font-family="Times,serif" font-size="14.00" fill="#000000"> EOC</text>
</g>
<!-- #undef_identificador_? -->
<g id="node9" class="node">
<title>#undef_identificador_?</title>
<ellipse fill="#ffffff" stroke="#ffffff" cx="2529.1257" cy="-312" rx="101.2679" ry="18"/>
<text text-anchor="middle" x="2529.1257" y="-307.8" font-family="Times,serif" font-size="14.00" fill="#000000">#undef_identificador_?</text>
</g>
<!-- #undef_identificador_&#45;&gt;#undef_identificador_? -->
<g id="edge8" class="edge">
<title>#undef_identificador_-&gt;#undef_identificador_?</title>
<path fill="none" stroke="#000000" d="M2224.412,-312C2282.6935,-312 2357.0725,-312 2417.7549,-312"/>
<polygon fill="#000000" stroke="#000000" points="2417.757,-315.5001 2427.7569,-312 2417.7569,-308.5001 2417.757,-315.5001"/>
<text text-anchor="middle" x="2326.1337" y="-316.2" font-family="Times,serif" font-size="14.00" fill="#000000">c = '???'</text>
</g>
<!-- #undef_identificador_&#45;&gt;*COMIENZO_DE_LINEA -->
<g id="edge17" class="edge">
<title>#undef_identificador_-&gt;*COMIENZO_DE_LINEA</title>
<path fill="none" stroke="#000000" d="M2207.5675,-322.1436C2330.2933,-338.085 2558.9142,-369.5019 2638.2595,-392 2663.6798,-399.2078 2669.0312,-404.056 2693.0805,-415 2724.6391,-429.3612 2759.7392,-446.6464 2786.4161,-460.0627"/>
<polygon fill="#000000" stroke="#000000" points="2784.9764,-463.2565 2795.4811,-464.6357 2788.1293,-457.0067 2784.9764,-463.2565"/>
<text text-anchor="middle" x="2389.3313" y="-353.2" font-family="Times,serif" font-size="14.00" fill="#000000">c = '/n'</text>
</g>
<!-- #undef_identificador_&#45;&gt;CARACTER_COMUN -->
<g id="edge26" class="edge">
<title>#undef_identificador_-&gt;CARACTER_COMUN</title>
<path fill="none" stroke="#000000" d="M2213.9817,-303.8483C2350.3005,-290.148 2608.2365,-260.4921 2693.0805,-225 2727.7889,-210.4807 2765.3475,-189.9786 2792.232,-174.3967"/>
<polygon fill="#000000" stroke="#000000" points="2794.0543,-177.3856 2800.9206,-169.3167 2790.5212,-171.3426 2794.0543,-177.3856"/>
<text text-anchor="middle" x="2389.3313" y="-290.2" font-family="Times,serif" font-size="14.00" fill="#000000"> EOC</text>
</g>
<!-- #undef_identificador_?&#45;&gt;*COMIENZO_DE_LINEA -->
<g id="edge18" class="edge">
<title>#undef_identificador_?-&gt;*COMIENZO_DE_LINEA</title>
<path fill="none" stroke="#000000" d="M2586.236,-326.9577C2618.7464,-336.754 2659.5465,-351.2645 2693.0805,-370.2 2735.5877,-394.2023 2778.0373,-431.6948 2804.0003,-456.5501"/>
<polygon fill="#000000" stroke="#000000" points="2801.8937,-459.3826 2811.5103,-463.8292 2806.7656,-454.3561 2801.8937,-459.3826"/>
<text text-anchor="middle" x="2670.67" y="-374.2" font-family="Times,serif" font-size="14.00" fill="#000000">c = '/n'</text>
</g>
<!-- #undef_identificador_?&#45;&gt;CARACTER_COMUN -->
<g id="edge27" class="edge">
<title>#undef_identificador_?-&gt;CARACTER_COMUN</title>
<path fill="none" stroke="#000000" d="M2587.9837,-297.2581C2604.5006,-292.4474 2622.2999,-286.6158 2638.2595,-280 2701.2717,-253.8795 2765.2812,-205.6326 2800.9059,-176.4136"/>
<polygon fill="#000000" stroke="#000000" points="2803.4484,-178.8521 2808.9114,-169.7743 2798.9798,-173.464 2803.4484,-178.8521"/>
<text text-anchor="middle" x="2670.67" y="-279.2" font-family="Times,serif" font-size="14.00" fill="#000000"> EOC</text>
</g>
<!-- ATENDER_UNDEF -->
<g id="node13" class="node">
<title>ATENDER_UNDEF</title>
<ellipse fill="none" stroke="#000000" cx="2829.3816" cy="-312" rx="93.1987" ry="18"/>
<text text-anchor="middle" x="2829.3816" y="-307.8" font-family="Times,serif" font-size="14.00" fill="#000000">ATENDER_UNDEF</text>
</g>
<!-- #undef_identificador_?&#45;&gt;ATENDER_UNDEF -->
<g id="edge28" class="edge">
<title>#undef_identificador_?-&gt;ATENDER_UNDEF</title>
<path fill="none" stroke="#000000" d="M2630.36,-312C2661.1046,-312 2694.9202,-312 2725.8159,-312"/>
<polygon fill="#000000" stroke="#000000" points="2726.173,-315.5001 2736.1729,-312 2726.1729,-308.5001 2726.173,-315.5001"/>
<text text-anchor="middle" x="2670.67" y="-333" font-family="Times,serif" font-size="14.00" fill="#000000">c = '/n' </text>
<text text-anchor="middle" x="2670.67" y="-316.2" font-family="Times,serif" font-size="14.00" fill="#000000"> ????</text>
</g>
<!-- POSIBLE_INCLUDE_DEFINE_UNDEF -->
<g id="node10" class="node">
<title>POSIBLE_INCLUDE_DEFINE_UNDEF</title>
<ellipse fill="none" stroke="#000000" cx="173.5581" cy="-312" rx="173.6161" ry="18"/>
<text text-anchor="middle" x="173.5581" y="-307.8" font-family="Times,serif" font-size="14.00" fill="#000000">POSIBLE_INCLUDE_DEFINE_UNDEF</text>
</g>
<!-- POSIBLE_INCLUDE_DEFINE_UNDEF&#45;&gt;#u -->
<g id="edge9" class="edge">
<title>POSIBLE_INCLUDE_DEFINE_UNDEF-&gt;#u</title>
<path fill="none" stroke="#000000" d="M347.3254,-312C372.3424,-312 395.7338,-312 413.9476,-312"/>
<polygon fill="#000000" stroke="#000000" points="414.0464,-315.5001 424.0464,-312 414.0463,-308.5001 414.0464,-315.5001"/>
<text text-anchor="middle" x="385.5813" y="-316.2" font-family="Times,serif" font-size="14.00" fill="#000000"> c = 'u'</text>
</g>
</g>
</svg>