<?xml version="1.0" encoding="UTF-8" standalone="no"?><!DOCTYPE svg PUBLIC "-//W3C//DTD SVG 1.1//EN" "http://www.w3.org/Graphics/SVG/1.1/DTD/svg11.dtd"><!-- Generated by graphviz version 2.40.1 (20161225.0304)
 --><!-- Title: INCLUDE Pages: 1 --><svg xmlns="http://www.w3.org/2000/svg" xmlns:xlink="http://www.w3.org/1999/xlink" width="2389pt" height="591pt" viewBox="0.00 0.00 2389.25 590.80">
<g id="graph0" class="graph" transform="scale(1 1) rotate(0) translate(4 586.8)">
<title>INCLUDE</title>
<polygon fill="#ffffff" stroke="transparent" points="-4,4 -4,-586.8 2385.2543,-586.8 2385.2543,4 -4,4"/>
<g id="clust1" class="cluster">
<title>cluster_0</title>
<polygon fill="#d3d3d3" stroke="#d3d3d3" points="416.0465,-249 416.0465,-326 2071.8312,-326 2071.8312,-249 416.0465,-249"/>
<text text-anchor="middle" x="1243.9389" y="-309.4" font-family="Times,serif" font-size="14.00" fill="#000000">INCLUDE</text>
</g>
<!-- #i -->
<g id="node1" class="node">
<title>#i</title>
<ellipse fill="#ffffff" stroke="#ffffff" cx="451.0465" cy="-275" rx="27" ry="18"/>
<text text-anchor="middle" x="451.0465" y="-270.8" font-family="Times,serif" font-size="14.00" fill="#000000">#i</text>
</g>
<!-- #in -->
<g id="node2" class="node">
<title>#in</title>
<ellipse fill="#ffffff" stroke="#ffffff" cx="619.9769" cy="-275" rx="27" ry="18"/>
<text text-anchor="middle" x="619.9769" y="-270.8" font-family="Times,serif" font-size="14.00" fill="#000000">#in</text>
</g>
<!-- #i&#45;&gt;#in -->
<g id="edge1" class="edge">
<title>#i-&gt;#in</title>
<path fill="none" stroke="#000000" d="M478.1881,-275C506.5107,-275 551.1147,-275 582.7236,-275"/>
<polygon fill="#000000" stroke="#000000" points="582.9027,-278.5001 592.9027,-275 582.9026,-271.5001 582.9027,-278.5001"/>
<text text-anchor="middle" x="535.5117" y="-279.2" font-family="Times,serif" font-size="14.00" fill="#000000"> c = 'n'</text>
</g>
<!-- *COMIENZO_DE_LINEA -->
<g id="node10" class="node">
<title>*COMIENZO_DE_LINEA</title>
<ellipse fill="none" stroke="#000000" cx="2262.9532" cy="-133" rx="118.1024" ry="18"/>
<text text-anchor="middle" x="2262.9532" y="-128.8" font-family="Times,serif" font-size="14.00" fill="#000000">*COMIENZO_DE_LINEA</text>
</g>
<!-- #i&#45;&gt;*COMIENZO_DE_LINEA -->
<g id="edge9" class="edge">
<title>#i-&gt;*COMIENZO_DE_LINEA</title>
<path fill="none" stroke="#000000" d="M452.6378,-256.9565C458.5235,-195.7764 481.5718,0 535.5117,0 535.5117,0 535.5117,0 2014.7116,0 2105.3877,0 2194.9658,-69.8005 2237.4485,-108.2687"/>
<polygon fill="#000000" stroke="#000000" points="2235.0967,-110.8609 2244.8226,-115.063 2239.84,-105.7129 2235.0967,-110.8609"/>
<text text-anchor="middle" x="1105.5565" y="-4.2" font-family="Times,serif" font-size="14.00" fill="#000000">c = '/n'</text>
</g>
<!-- CARACTER_COMUN -->
<g id="node11" class="node">
<title>CARACTER_COMUN</title>
<ellipse fill="none" stroke="#000000" cx="2262.9532" cy="-433" rx="103.1118" ry="18"/>
<text text-anchor="middle" x="2262.9532" y="-428.8" font-family="Times,serif" font-size="14.00" fill="#000000">CARACTER_COMUN</text>
</g>
<!-- #i&#45;&gt;CARACTER_COMUN -->
<g id="edge17" class="edge">
<title>#i-&gt;CARACTER_COMUN</title>
<path fill="none" stroke="#000000" d="M452.3561,-293.2034C457.4309,-356.9104 478.4342,-566 535.5117,-566 535.5117,-566 535.5117,-566 2014.7116,-566 2105.3877,-566 2194.9658,-496.1995 2237.4485,-457.7313"/>
<polygon fill="#000000" stroke="#000000" points="2239.84,-460.2871 2244.8226,-450.937 2235.0967,-455.1391 2239.84,-460.2871"/>
<text text-anchor="middle" x="1105.5565" y="-570.2" font-family="Times,serif" font-size="14.00" fill="#000000"> EOC</text>
</g>
<!-- #inc -->
<g id="node3" class="node">
<title>#inc</title>
<ellipse fill="#ffffff" stroke="#ffffff" cx="788.7857" cy="-275" rx="27.8286" ry="18"/>
<text text-anchor="middle" x="788.7857" y="-270.8" font-family="Times,serif" font-size="14.00" fill="#000000">#inc</text>
</g>
<!-- #in&#45;&gt;#inc -->
<g id="edge2" class="edge">
<title>#in-&gt;#inc</title>
<path fill="none" stroke="#000000" d="M647.099,-275C675.15,-275 719.1832,-275 750.7152,-275"/>
<polygon fill="#000000" stroke="#000000" points="750.8883,-278.5001 760.8882,-275 750.8882,-271.5001 750.8883,-278.5001"/>
<text text-anchor="middle" x="704.0494" y="-279.2" font-family="Times,serif" font-size="14.00" fill="#000000"> c = 'c'</text>
</g>
<!-- #in&#45;&gt;*COMIENZO_DE_LINEA -->
<g id="edge10" class="edge">
<title>#in-&gt;*COMIENZO_DE_LINEA</title>
<path fill="none" stroke="#000000" d="M622.4163,-256.7965C630.3568,-201.3 657.6628,-38 704.0494,-38 704.0494,-38 704.0494,-38 2014.7116,-38 2094.9617,-38 2180.7385,-81.8404 2227.4996,-109.9577"/>
<polygon fill="#000000" stroke="#000000" points="2225.9617,-113.1199 2236.3184,-115.3539 2229.6153,-107.149 2225.9617,-113.1199"/>
<text text-anchor="middle" x="1253.2294" y="-42.2" font-family="Times,serif" font-size="14.00" fill="#000000">c = '/n'</text>
</g>
<!-- #in&#45;&gt;CARACTER_COMUN -->
<g id="edge18" class="edge">
<title>#in-&gt;CARACTER_COMUN</title>
<path fill="none" stroke="#000000" d="M622.0241,-293.1951C629.0498,-351.2057 654.5242,-528 704.0494,-528 704.0494,-528 704.0494,-528 2014.7116,-528 2095.178,-528 2181.2009,-483.923 2227.8768,-455.8153"/>
<polygon fill="#000000" stroke="#000000" points="2229.9764,-458.6337 2236.6741,-450.4245 2226.3189,-452.6651 2229.9764,-458.6337"/>
<text text-anchor="middle" x="1253.2294" y="-532.2" font-family="Times,serif" font-size="14.00" fill="#000000"> EOC</text>
</g>
<!-- #incl -->
<g id="node4" class="node">
<title>#incl</title>
<ellipse fill="#ffffff" stroke="#ffffff" cx="958.6181" cy="-275" rx="30.1958" ry="18"/>
<text text-anchor="middle" x="958.6181" y="-270.8" font-family="Times,serif" font-size="14.00" fill="#000000">#incl</text>
</g>
<!-- #inc&#45;&gt;#incl -->
<g id="edge3" class="edge">
<title>#inc-&gt;#incl</title>
<path fill="none" stroke="#000000" d="M816.4502,-275C843.9797,-275 886.5361,-275 917.9182,-275"/>
<polygon fill="#000000" stroke="#000000" points="918.0946,-278.5001 928.0946,-275 918.0946,-271.5001 918.0946,-278.5001"/>
<text text-anchor="middle" x="872.3601" y="-279.2" font-family="Times,serif" font-size="14.00" fill="#000000"> c = 'l'</text>
</g>
<!-- #inc&#45;&gt;*COMIENZO_DE_LINEA -->
<g id="edge11" class="edge">
<title>#inc-&gt;*COMIENZO_DE_LINEA</title>
<path fill="none" stroke="#000000" d="M792.3151,-256.9891C802.4259,-208.0034 833.2958,-76 872.3601,-76 872.3601,-76 872.3601,-76 2014.7116,-76 2082.6983,-76 2158.5629,-96.5601 2208.3197,-112.9841"/>
<polygon fill="#000000" stroke="#000000" points="2207.3189,-116.34 2217.9129,-116.2064 2209.5478,-109.7044 2207.3189,-116.34"/>
<text text-anchor="middle" x="1371.4808" y="-80.2" font-family="Times,serif" font-size="14.00" fill="#000000">c = '/n'</text>
</g>
<!-- #inc&#45;&gt;CARACTER_COMUN -->
<g id="edge19" class="edge">
<title>#inc-&gt;CARACTER_COMUN</title>
<path fill="none" stroke="#000000" d="M791.773,-292.961C800.8708,-344.634 830.2103,-490 872.3601,-490 872.3601,-490 872.3601,-490 2014.7116,-490 2083.3202,-490 2159.9514,-469.0621 2209.6784,-452.5663"/>
<polygon fill="#000000" stroke="#000000" points="2210.8993,-455.8483 2219.2547,-449.3339 2208.6605,-449.2159 2210.8993,-455.8483"/>
<text text-anchor="middle" x="1371.4808" y="-494.2" font-family="Times,serif" font-size="14.00" fill="#000000"> EOC</text>
</g>
<!-- #inclu -->
<g id="node5" class="node">
<title>#inclu</title>
<ellipse fill="#ffffff" stroke="#ffffff" cx="1179.393" cy="-275" rx="35.3528" ry="18"/>
<text text-anchor="middle" x="1179.393" y="-270.8" font-family="Times,serif" font-size="14.00" fill="#000000">#inclu</text>
</g>
<!-- #incl&#45;&gt;#inclu -->
<g id="edge4" class="edge">
<title>#incl-&gt;#inclu</title>
<path fill="none" stroke="#000000" d="M989.3159,-275C1026.7502,-275 1090.365,-275 1133.5939,-275"/>
<polygon fill="#000000" stroke="#000000" points="1133.8451,-278.5001 1143.845,-275 1133.845,-271.5001 1133.8451,-278.5001"/>
<text text-anchor="middle" x="1046.4308" y="-279.2" font-family="Times,serif" font-size="14.00" fill="#000000"> c = 'u'</text>
</g>
<!-- #incl&#45;&gt;*COMIENZO_DE_LINEA -->
<g id="edge12" class="edge">
<title>#incl-&gt;*COMIENZO_DE_LINEA</title>
<path fill="none" stroke="#000000" d="M960.0731,-256.8442C964.5381,-214.7386 981.9576,-114 1046.4308,-114 1046.4308,-114 1046.4308,-114 2014.7116,-114 2061.6286,-114 2113.3883,-117.4158 2157.4493,-121.3508"/>
<polygon fill="#000000" stroke="#000000" points="2157.3226,-124.8537 2167.5996,-122.2784 2157.9597,-117.8827 2157.3226,-124.8537"/>
<text text-anchor="middle" x="1528.8107" y="-118.2" font-family="Times,serif" font-size="14.00" fill="#000000">c = '/n'</text>
</g>
<!-- #incl&#45;&gt;CARACTER_COMUN -->
<g id="edge20" class="edge">
<title>#incl-&gt;CARACTER_COMUN</title>
<path fill="none" stroke="#000000" d="M963.4066,-292.9458C975.94,-337.9443 1011.1844,-452 1046.4308,-452 1046.4308,-452 1046.4308,-452 2014.7116,-452 2064.7412,-452 2120.2773,-448.1159 2166.1134,-443.86"/>
<polygon fill="#000000" stroke="#000000" points="2166.7156,-447.3187 2176.3401,-442.8896 2166.0542,-440.35 2166.7156,-447.3187"/>
<text text-anchor="middle" x="1528.8107" y="-456.2" font-family="Times,serif" font-size="14.00" fill="#000000"> EOC</text>
</g>
<!-- #includ -->
<g id="node6" class="node">
<title>#includ</title>
<ellipse fill="#ffffff" stroke="#ffffff" cx="1450.1458" cy="-275" rx="40.0089" ry="18"/>
<text text-anchor="middle" x="1450.1458" y="-270.8" font-family="Times,serif" font-size="14.00" fill="#000000">#includ</text>
</g>
<!-- #inclu&#45;&gt;#includ -->
<g id="edge5" class="edge">
<title>#inclu-&gt;#includ</title>
<path fill="none" stroke="#000000" d="M1214.7892,-275C1262.0557,-275 1346.062,-275 1399.8788,-275"/>
<polygon fill="#000000" stroke="#000000" points="1399.8901,-278.5001 1409.89,-275 1399.89,-271.5001 1399.8901,-278.5001"/>
<text text-anchor="middle" x="1312.3551" y="-279.2" font-family="Times,serif" font-size="14.00" fill="#000000"> c = 'd'</text>
</g>
<!-- #inclu&#45;&gt;*COMIENZO_DE_LINEA -->
<g id="edge13" class="edge">
<title>#inclu-&gt;*COMIENZO_DE_LINEA</title>
<path fill="none" stroke="#000000" d="M1187.9983,-257.3771C1205.9856,-223.3665 1251.0352,-152 1312.3551,-152 1312.3551,-152 1312.3551,-152 2014.7116,-152 2061.6286,-152 2113.3883,-148.5842 2157.4493,-144.6492"/>
<polygon fill="#000000" stroke="#000000" points="2157.9597,-148.1173 2167.5996,-143.7216 2157.3226,-141.1463 2157.9597,-148.1173"/>
<text text-anchor="middle" x="1646.2767" y="-156.2" font-family="Times,serif" font-size="14.00" fill="#000000">c = '/n'</text>
</g>
<!-- #inclu&#45;&gt;CARACTER_COMUN -->
<g id="edge21" class="edge">
<title>#inclu-&gt;CARACTER_COMUN</title>
<path fill="none" stroke="#000000" d="M1186.4706,-292.8873C1202.6361,-330.4289 1246.0666,-414 1312.3551,-414 1312.3551,-414 1312.3551,-414 2014.7116,-414 2064.7412,-414 2120.2773,-417.8841 2166.1134,-422.14"/>
<polygon fill="#000000" stroke="#000000" points="2166.0542,-425.65 2176.3401,-423.1104 2166.7156,-418.6813 2166.0542,-425.65"/>
<text text-anchor="middle" x="1646.2767" y="-418.2" font-family="Times,serif" font-size="14.00" fill="#000000"> EOC</text>
</g>
<!-- #include -->
<g id="node7" class="node">
<title>#include</title>
<ellipse fill="#ffffff" stroke="#ffffff" cx="1729.2284" cy="-275" rx="44.0833" ry="18"/>
<text text-anchor="middle" x="1729.2284" y="-270.8" font-family="Times,serif" font-size="14.00" fill="#000000">#include</text>
</g>
<!-- #includ&#45;&gt;#include -->
<g id="edge6" class="edge">
<title>#includ-&gt;#include</title>
<path fill="none" stroke="#000000" d="M1490.4287,-275C1538.928,-275 1620.5947,-275 1674.7035,-275"/>
<polygon fill="#000000" stroke="#000000" points="1674.8057,-278.5001 1684.8057,-275 1674.8057,-271.5001 1674.8057,-278.5001"/>
<text text-anchor="middle" x="1587.5437" y="-279.2" font-family="Times,serif" font-size="14.00" fill="#000000"> c = 'e'</text>
</g>
<!-- #includ&#45;&gt;*COMIENZO_DE_LINEA -->
<g id="edge14" class="edge">
<title>#includ-&gt;*COMIENZO_DE_LINEA</title>
<path fill="none" stroke="#000000" d="M1464.7695,-258.2067C1488.0587,-233.4351 1536.2132,-190 1587.5437,-190 1587.5437,-190 1587.5437,-190 1926.9314,-190 2021.0619,-190 2127.9624,-167.9887 2195.4121,-151.3227"/>
<polygon fill="#000000" stroke="#000000" points="2196.6301,-154.6258 2205.4807,-148.802 2194.93,-147.8354 2196.6301,-154.6258"/>
<text text-anchor="middle" x="1812.18" y="-194.2" font-family="Times,serif" font-size="14.00" fill="#000000">c = '/n'</text>
</g>
<!-- #includ&#45;&gt;CARACTER_COMUN -->
<g id="edge22" class="edge">
<title>#includ-&gt;CARACTER_COMUN</title>
<path fill="none" stroke="#000000" d="M1462.2976,-292.5929C1483.8759,-321.53 1531.8859,-376 1587.5437,-376 1587.5437,-376 1587.5437,-376 1926.9314,-376 2022.0468,-376 2130.2009,-398.4743 2197.5163,-415.1987"/>
<polygon fill="#000000" stroke="#000000" points="2197.0012,-418.6781 2207.553,-417.725 2198.7099,-411.8899 2197.0012,-418.6781"/>
<text text-anchor="middle" x="1812.18" y="-380.2" font-family="Times,serif" font-size="14.00" fill="#000000"> EOC</text>
</g>
<!-- #include_ -->
<g id="node8" class="node">
<title>#include_</title>
<ellipse fill="#ffffff" stroke="#ffffff" cx="2014.7116" cy="-275" rx="49.2396" ry="18"/>
<text text-anchor="middle" x="2014.7116" y="-270.8" font-family="Times,serif" font-size="14.00" fill="#000000">#include_</text>
</g>
<!-- #include&#45;&gt;#include_ -->
<g id="edge7" class="edge">
<title>#include-&gt;#include_</title>
<path fill="none" stroke="#000000" d="M1773.5219,-275C1822.3699,-275 1901.2083,-275 1955.371,-275"/>
<polygon fill="#000000" stroke="#000000" points="1955.5211,-278.5001 1965.521,-275 1955.521,-271.5001 1955.5211,-278.5001"/>
<text text-anchor="middle" x="1869.5557" y="-279.2" font-family="Times,serif" font-size="14.00" fill="#000000"> c = ' '</text>
</g>
<!-- #include&#45;&gt;*COMIENZO_DE_LINEA -->
<g id="edge15" class="edge">
<title>#include-&gt;*COMIENZO_DE_LINEA</title>
<path fill="none" stroke="#000000" d="M1771.3115,-269.141C1844.8412,-258.1699 2000.8594,-231.6154 2126.6522,-188 2156.0471,-177.8081 2188.3594,-164.8487 2214.1426,-154.0698"/>
<polygon fill="#000000" stroke="#000000" points="2215.8244,-157.1595 2223.6849,-150.0557 2213.1101,-150.7071 2215.8244,-157.1595"/>
<text text-anchor="middle" x="1926.9314" y="-249.2" font-family="Times,serif" font-size="14.00" fill="#000000">c = '/n'</text>
</g>
<!-- #include&#45;&gt;CARACTER_COMUN -->
<g id="edge23" class="edge">
<title>#include-&gt;CARACTER_COMUN</title>
<path fill="none" stroke="#000000" d="M1769.0554,-283.102C1841.3456,-298.2951 1998.5309,-333.5772 2126.6522,-378 2156.3913,-388.3113 2189.1166,-401.4552 2215.0457,-412.308"/>
<polygon fill="#000000" stroke="#000000" points="2213.6983,-415.5382 2224.2729,-416.1932 2216.4148,-409.0868 2213.6983,-415.5382"/>
<text text-anchor="middle" x="1926.9314" y="-328.2" font-family="Times,serif" font-size="14.00" fill="#000000"> EOC</text>
</g>
<!-- #include_&#45;&gt;*COMIENZO_DE_LINEA -->
<g id="edge16" class="edge">
<title>#include_-&gt;*COMIENZO_DE_LINEA</title>
<path fill="none" stroke="#000000" d="M2042.4206,-259.9033C2065.1397,-247.4653 2098.0907,-229.2882 2126.6522,-213 2159.9511,-194.0102 2197.499,-171.9213 2224.7411,-155.7714"/>
<polygon fill="#000000" stroke="#000000" points="2226.7505,-158.6489 2233.5636,-150.5352 2223.1778,-152.6292 2226.7505,-158.6489"/>
<text text-anchor="middle" x="2104.2417" y="-241.2" font-family="Times,serif" font-size="14.00" fill="#000000">c = '/n'</text>
</g>
<!-- #include_&#45;&gt;CARACTER_COMUN -->
<g id="edge24" class="edge">
<title>#include_-&gt;CARACTER_COMUN</title>
<path fill="none" stroke="#000000" d="M2043.1149,-289.8353C2055.0648,-296.0705 2069.1198,-303.396 2081.8312,-310 2101.736,-320.3412 2107.5862,-321.3835 2126.6522,-333.2 2164.8325,-356.8628 2206.114,-387.933 2233.1205,-409.0779"/>
<polygon fill="#000000" stroke="#000000" points="2231.0025,-411.865 2241.0243,-415.3023 2235.3334,-406.3656 2231.0025,-411.865"/>
<text text-anchor="middle" x="2104.2417" y="-337.2" font-family="Times,serif" font-size="14.00" fill="#000000"> EOC</text>
</g>
<!-- ATENDER_INCLUDE -->
<g id="node12" class="node">
<title>ATENDER_INCLUDE</title>
<ellipse fill="none" stroke="#000000" cx="2262.9532" cy="-275" rx="103.0713" ry="18"/>
<text text-anchor="middle" x="2262.9532" y="-270.8" font-family="Times,serif" font-size="14.00" fill="#000000">ATENDER_INCLUDE</text>
</g>
<!-- #include_&#45;&gt;ATENDER_INCLUDE -->
<g id="edge25" class="edge">
<title>#include_-&gt;ATENDER_INCLUDE</title>
<path fill="none" stroke="#000000" d="M2064.0529,-275C2088.6343,-275 2119.4542,-275 2149.442,-275"/>
<polygon fill="#000000" stroke="#000000" points="2149.5698,-278.5001 2159.5697,-275 2149.5697,-271.5001 2149.5698,-278.5001"/>
<text text-anchor="middle" x="2104.2417" y="-296" font-family="Times,serif" font-size="14.00" fill="#000000">c = '/n' </text>
<text text-anchor="middle" x="2104.2417" y="-279.2" font-family="Times,serif" font-size="14.00" fill="#000000"> ????</text>
</g>
<!-- POSIBLE_INCLUDE_DEFINE_UNDEF -->
<g id="node9" class="node">
<title>POSIBLE_INCLUDE_DEFINE_UNDEF</title>
<ellipse fill="none" stroke="#000000" cx="173.5581" cy="-275" rx="173.6161" ry="18"/>
<text text-anchor="middle" x="173.5581" y="-270.8" font-family="Times,serif" font-size="14.00" fill="#000000">POSIBLE_INCLUDE_DEFINE_UNDEF</text>
</g>
<!-- POSIBLE_INCLUDE_DEFINE_UNDEF&#45;&gt;#i -->
<g id="edge8" class="edge">
<title>POSIBLE_INCLUDE_DEFINE_UNDEF-&gt;#i</title>
<path fill="none" stroke="#000000" d="M347.3254,-275C372.3424,-275 395.7338,-275 413.9476,-275"/>
<polygon fill="#000000" stroke="#000000" points="414.0464,-278.5001 424.0464,-275 414.0463,-271.5001 414.0464,-278.5001"/>
<text text-anchor="middle" x="385.5813" y="-279.2" font-family="Times,serif" font-size="14.00" fill="#000000"> c = 'u'</text>
</g>
</g>
</svg>