<?xml version="1.0" encoding="UTF-8" standalone="no"?><!DOCTYPE svg PUBLIC "-//W3C//DTD SVG 1.1//EN" "http://www.w3.org/Graphics/SVG/1.1/DTD/svg11.dtd"><!-- Generated by graphviz version 2.40.1 (20161225.0304)
 --><!-- Title: DEFINE Pages: 1 --><svg xmlns="http://www.w3.org/2000/svg" xmlns:xlink="http://www.w3.org/1999/xlink" width="3218pt" height="727pt" viewBox="0.00 0.00 3218.09 726.80">
<g id="graph0" class="graph" transform="scale(1 1) rotate(0) translate(4 722.8)">
<title>DEFINE</title>
<polygon fill="#ffffff" stroke="transparent" points="-4,4 -4,-722.8 3214.0932,-722.8 3214.0932,4 -4,4"/>
<g id="clust1" class="cluster">
<title>cluster_0</title>
<polygon fill="#d3d3d3" stroke="#d3d3d3" points="416.0465,-324 416.0465,-401 2900.6702,-401 2900.6702,-324 416.0465,-324"/>
<text text-anchor="middle" x="1658.3583" y="-384.4" font-family="Times,serif" font-size="14.00" fill="#000000">DEFINE</text>
</g>
<!-- #d -->
<g id="node1" class="node">
<title>#d</title>
<ellipse fill="#ffffff" stroke="#ffffff" cx="451.0465" cy="-350" rx="27" ry="18"/>
<text text-anchor="middle" x="451.0465" y="-345.8" font-family="Times,serif" font-size="14.00" fill="#000000">#d</text>
</g>
<!-- #de -->
<g id="node2" class="node">
<title>#de</title>
<ellipse fill="#ffffff" stroke="#ffffff" cx="619.1915" cy="-350" rx="27" ry="18"/>
<text text-anchor="middle" x="619.1915" y="-345.8" font-family="Times,serif" font-size="14.00" fill="#000000">#de</text>
</g>
<!-- #d&#45;&gt;#de -->
<g id="edge1" class="edge">
<title>#d-&gt;#de</title>
<path fill="none" stroke="#000000" d="M478.0619,-350C506.1694,-350 550.3869,-350 581.8318,-350"/>
<polygon fill="#000000" stroke="#000000" points="581.9644,-353.5001 591.9644,-350 581.9643,-346.5001 581.9644,-353.5001"/>
<text text-anchor="middle" x="535.119" y="-354.2" font-family="Times,serif" font-size="14.00" fill="#000000">c = 'e' </text>
</g>
<!-- *COMIENZO_DE_LINEA -->
<g id="node12" class="node">
<title>*COMIENZO_DE_LINEA</title>
<ellipse fill="none" stroke="#000000" cx="3091.7922" cy="-171" rx="118.1024" ry="18"/>
<text text-anchor="middle" x="3091.7922" y="-166.8" font-family="Times,serif" font-size="14.00" fill="#000000">*COMIENZO_DE_LINEA</text>
</g>
<!-- #d&#45;&gt;*COMIENZO_DE_LINEA -->
<g id="edge11" class="edge">
<title>#d-&gt;*COMIENZO_DE_LINEA</title>
<path fill="none" stroke="#000000" d="M451.4736,-331.6753C453.6384,-259.6601 466.2212,0 535.119,0 535.119,0 535.119,0 2774.3701,0 2831.5079,0 2847.9752,-1.9099 2900.6702,-24 2928.0109,-35.4615 2931.7183,-44.2875 2955.4912,-62 2993.1438,-90.054 3035.1574,-124.0857 3062.4546,-146.5776"/>
<polygon fill="#000000" stroke="#000000" points="3060.4938,-149.4976 3070.4325,-153.168 3064.9519,-144.1009 3060.4938,-149.4976"/>
<text text-anchor="middle" x="1276.9008" y="-4.2" font-family="Times,serif" font-size="14.00" fill="#000000">c = '/n'</text>
</g>
<!-- CARACTER_COMUN -->
<g id="node13" class="node">
<title>CARACTER_COMUN</title>
<ellipse fill="none" stroke="#000000" cx="3091.7922" cy="-531" rx="103.1118" ry="18"/>
<text text-anchor="middle" x="3091.7922" y="-526.8" font-family="Times,serif" font-size="14.00" fill="#000000">CARACTER_COMUN</text>
</g>
<!-- #d&#45;&gt;CARACTER_COMUN -->
<g id="edge21" class="edge">
<title>#d-&gt;CARACTER_COMUN</title>
<path fill="none" stroke="#000000" d="M451.4521,-368.4294C453.5352,-440.8561 465.8489,-702 535.119,-702 535.119,-702 535.119,-702 2774.3701,-702 2831.5079,-702 2848.5161,-701.3384 2900.6702,-678 2968.163,-647.7976 3033.5092,-589.2875 3067.5376,-555.9139"/>
<polygon fill="#000000" stroke="#000000" points="3070.0767,-558.325 3074.7083,-548.7962 3065.1454,-553.357 3070.0767,-558.325"/>
<text text-anchor="middle" x="1276.9008" y="-706.2" font-family="Times,serif" font-size="14.00" fill="#000000"> EOC</text>
</g>
<!-- #def -->
<g id="node3" class="node">
<title>#def</title>
<ellipse fill="#ffffff" stroke="#ffffff" cx="783.4775" cy="-350" rx="28.3913" ry="18"/>
<text text-anchor="middle" x="783.4775" y="-345.8" font-family="Times,serif" font-size="14.00" fill="#000000">#def</text>
</g>
<!-- #de&#45;&gt;#def -->
<g id="edge2" class="edge">
<title>#de-&gt;#def</title>
<path fill="none" stroke="#000000" d="M646.32,-350C673.223,-350 714.697,-350 744.9972,-350"/>
<polygon fill="#000000" stroke="#000000" points="745.2065,-353.5001 755.2065,-350 745.2065,-346.5001 745.2065,-353.5001"/>
<text text-anchor="middle" x="700.737" y="-354.2" font-family="Times,serif" font-size="14.00" fill="#000000">c = 'f'</text>
</g>
<!-- #de&#45;&gt;*COMIENZO_DE_LINEA -->
<g id="edge12" class="edge">
<title>#de-&gt;*COMIENZO_DE_LINEA</title>
<path fill="none" stroke="#000000" d="M619.9908,-331.877C623.4126,-265.2885 639.5721,-38 700.737,-38 700.737,-38 700.737,-38 2774.3701,-38 2831.5079,-38 2847.0564,-42.2442 2900.6702,-62 2959.7338,-83.764 3021.9512,-122.6739 3058.7886,-147.6376"/>
<polygon fill="#000000" stroke="#000000" points="3056.9151,-150.5966 3067.1442,-153.3566 3060.8689,-144.8201 3056.9151,-150.5966"/>
<text text-anchor="middle" x="1434.2095" y="-42.2" font-family="Times,serif" font-size="14.00" fill="#000000">c = '/n'</text>
</g>
<!-- #de&#45;&gt;CARACTER_COMUN -->
<g id="edge22" class="edge">
<title>#de-&gt;CARACTER_COMUN</title>
<path fill="none" stroke="#000000" d="M619.9672,-368.2392C623.3051,-435.2545 639.205,-664 700.737,-664 700.737,-664 700.737,-664 2774.3701,-664 2858.244,-664 2882.2361,-651.8476 2955.4912,-611 2989.1864,-592.2112 3026.9853,-569.9284 3054.2154,-553.6575"/>
<polygon fill="#000000" stroke="#000000" points="3056.2418,-556.5237 3063.0236,-548.3838 3052.6459,-550.5179 3056.2418,-556.5237"/>
<text text-anchor="middle" x="1434.2095" y="-668.2" font-family="Times,serif" font-size="14.00" fill="#000000"> EOC</text>
</g>
<!-- #defi -->
<g id="node4" class="node">
<title>#defi</title>
<ellipse fill="#ffffff" stroke="#ffffff" cx="950.8721" cy="-350" rx="30.7577" ry="18"/>
<text text-anchor="middle" x="950.8721" y="-345.8" font-family="Times,serif" font-size="14.00" fill="#000000">#defi</text>
</g>
<!-- #def&#45;&gt;#defi -->
<g id="edge3" class="edge">
<title>#def-&gt;#defi</title>
<path fill="none" stroke="#000000" d="M811.8737,-350C838.658,-350 879.1185,-350 909.4908,-350"/>
<polygon fill="#000000" stroke="#000000" points="909.7742,-353.5001 919.7742,-350 909.7741,-346.5001 909.7742,-353.5001"/>
<text text-anchor="middle" x="865.8329" y="-354.2" font-family="Times,serif" font-size="14.00" fill="#000000">c = 'i'</text>
</g>
<!-- #def&#45;&gt;*COMIENZO_DE_LINEA -->
<g id="edge13" class="edge">
<title>#def-&gt;*COMIENZO_DE_LINEA</title>
<path fill="none" stroke="#000000" d="M784.9519,-332.0221C790.4387,-271.0645 812.1875,-76 865.8329,-76 865.8329,-76 865.8329,-76 2774.3701,-76 2875.9299,-76 2988.3836,-121.1858 3048.3989,-149.2311"/>
<polygon fill="#000000" stroke="#000000" points="3047.0353,-152.458 3057.5711,-153.5755 3050.0318,-146.1317 3047.0353,-152.458"/>
<text text-anchor="middle" x="1545.4609" y="-80.2" font-family="Times,serif" font-size="14.00" fill="#000000">c = '/n'</text>
</g>
<!-- #def&#45;&gt;CARACTER_COMUN -->
<g id="edge23" class="edge">
<title>#def-&gt;CARACTER_COMUN</title>
<path fill="none" stroke="#000000" d="M784.9256,-368.1091C790.3265,-429.5117 811.8283,-626 865.8329,-626 865.8329,-626 865.8329,-626 2774.3701,-626 2876.2029,-626 2988.9883,-580.5709 3048.8818,-552.5431"/>
<polygon fill="#000000" stroke="#000000" points="3050.4951,-555.6516 3058.0304,-548.2038 3047.4953,-549.327 3050.4951,-555.6516"/>
<text text-anchor="middle" x="1545.4609" y="-630.2" font-family="Times,serif" font-size="14.00" fill="#000000"> EOC</text>
</g>
<!-- #defin -->
<g id="node5" class="node">
<title>#defin</title>
<ellipse fill="#ffffff" stroke="#ffffff" cx="1128.8882" cy="-350" rx="35.9154" ry="18"/>
<text text-anchor="middle" x="1128.8882" y="-345.8" font-family="Times,serif" font-size="14.00" fill="#000000">#defin</text>
</g>
<!-- #defi&#45;&gt;#defin -->
<g id="edge4" class="edge">
<title>#defi-&gt;#defin</title>
<path fill="none" stroke="#000000" d="M981.8801,-350C1009.7139,-350 1050.9504,-350 1082.6716,-350"/>
<polygon fill="#000000" stroke="#000000" points="1083.0314,-353.5001 1093.0313,-350 1083.0313,-346.5001 1083.0314,-353.5001"/>
<text text-anchor="middle" x="1037.4659" y="-354.2" font-family="Times,serif" font-size="14.00" fill="#000000">c = 'n'</text>
</g>
<!-- #defi&#45;&gt;*COMIENZO_DE_LINEA -->
<g id="edge14" class="edge">
<title>#defi-&gt;*COMIENZO_DE_LINEA</title>
<path fill="none" stroke="#000000" d="M953.5065,-331.8733C962.0413,-276.611 991.095,-114 1037.4659,-114 1037.4659,-114 1037.4659,-114 2774.3701,-114 2862.9915,-114 2963.3703,-135.7901 3027.0892,-152.4251"/>
<polygon fill="#000000" stroke="#000000" points="3026.4308,-155.8713 3036.9935,-155.0465 3028.2219,-149.1043 3026.4308,-155.8713"/>
<text text-anchor="middle" x="1712.4265" y="-118.2" font-family="Times,serif" font-size="14.00" fill="#000000">c = '/n'</text>
</g>
<!-- #defi&#45;&gt;CARACTER_COMUN -->
<g id="edge24" class="edge">
<title>#defi-&gt;CARACTER_COMUN</title>
<path fill="none" stroke="#000000" d="M953.4765,-368.2803C961.9235,-424.0109 990.7484,-588 1037.4659,-588 1037.4659,-588 1037.4659,-588 2774.3701,-588 2863.7887,-588 2965.1772,-565.8161 3028.7998,-549.1272"/>
<polygon fill="#000000" stroke="#000000" points="3029.9143,-552.4526 3038.679,-546.5002 3028.1154,-545.6877 3029.9143,-552.4526"/>
<text text-anchor="middle" x="1712.4265" y="-592.2" font-family="Times,serif" font-size="14.00" fill="#000000"> EOC</text>
</g>
<!-- #define -->
<g id="node6" class="node">
<title>#define</title>
<ellipse fill="#ffffff" stroke="#ffffff" cx="1355.5551" cy="-350" rx="39.9876" ry="18"/>
<text text-anchor="middle" x="1355.5551" y="-345.8" font-family="Times,serif" font-size="14.00" fill="#000000">#define</text>
</g>
<!-- #defin&#45;&gt;#define -->
<g id="edge5" class="edge">
<title>#defin-&gt;#define</title>
<path fill="none" stroke="#000000" d="M1164.8043,-350C1202.6303,-350 1262.4957,-350 1305.0645,-350"/>
<polygon fill="#000000" stroke="#000000" points="1305.2195,-353.5001 1315.2194,-350 1305.2194,-346.5001 1305.2195,-353.5001"/>
<text text-anchor="middle" x="1219.9178" y="-354.2" font-family="Times,serif" font-size="14.00" fill="#000000">c = 'e'</text>
</g>
<!-- #defin&#45;&gt;*COMIENZO_DE_LINEA -->
<g id="edge15" class="edge">
<title>#defin-&gt;*COMIENZO_DE_LINEA</title>
<path fill="none" stroke="#000000" d="M1133.0534,-332.0796C1144.8982,-283.3401 1180.476,-152 1219.9178,-152 1219.9178,-152 1219.9178,-152 2774.3701,-152 2842.7463,-152 2919.2597,-156.4473 2980.0318,-161.0387"/>
<polygon fill="#000000" stroke="#000000" points="2979.7923,-164.5305 2990.0309,-161.8061 2980.3281,-157.5511 2979.7923,-164.5305"/>
<text text-anchor="middle" x="1838.8217" y="-156.2" font-family="Times,serif" font-size="14.00" fill="#000000">c = '/n'</text>
</g>
<!-- #defin&#45;&gt;CARACTER_COMUN -->
<g id="edge25" class="edge">
<title>#defin-&gt;CARACTER_COMUN</title>
<path fill="none" stroke="#000000" d="M1133.0194,-368.1014C1144.7761,-417.3332 1180.1469,-550 1219.9178,-550 1219.9178,-550 1219.9178,-550 2774.3701,-550 2846.5377,-550 2927.77,-545.0458 2989.9918,-540.1969"/>
<polygon fill="#000000" stroke="#000000" points="2990.5092,-543.667 3000.2019,-539.389 2989.957,-536.6888 2990.5092,-543.667"/>
<text text-anchor="middle" x="1838.8217" y="-554.2" font-family="Times,serif" font-size="14.00" fill="#000000"> EOC</text>
</g>
<!-- #define_ -->
<g id="node7" class="node">
<title>#define_</title>
<ellipse fill="#ffffff" stroke="#ffffff" cx="1628.9437" cy="-350" rx="44.6453" ry="18"/>
<text text-anchor="middle" x="1628.9437" y="-345.8" font-family="Times,serif" font-size="14.00" fill="#000000">#define_</text>
</g>
<!-- #define&#45;&gt;#define_ -->
<g id="edge6" class="edge">
<title>#define-&gt;#define_</title>
<path fill="none" stroke="#000000" d="M1395.601,-350C1442.5977,-350 1520.8001,-350 1573.5808,-350"/>
<polygon fill="#000000" stroke="#000000" points="1573.7812,-353.5001 1583.7811,-350 1573.7811,-346.5001 1573.7812,-353.5001"/>
<text text-anchor="middle" x="1489.8352" y="-354.2" font-family="Times,serif" font-size="14.00" fill="#000000">c = ' '</text>
</g>
<!-- #define&#45;&gt;*COMIENZO_DE_LINEA -->
<g id="edge16" class="edge">
<title>#define-&gt;*COMIENZO_DE_LINEA</title>
<path fill="none" stroke="#000000" d="M1361.0761,-331.957C1375.122,-290.1129 1416.4006,-190 1489.8352,-190 1489.8352,-190 1489.8352,-190 2774.3701,-190 2842.7463,-190 2919.2597,-185.5527 2980.0318,-180.9613"/>
<polygon fill="#000000" stroke="#000000" points="2980.3281,-184.4489 2990.0309,-180.1939 2979.7923,-177.4695 2980.3281,-184.4489"/>
<text text-anchor="middle" x="2104.4638" y="-194.2" font-family="Times,serif" font-size="14.00" fill="#000000">c = '/n'</text>
</g>
<!-- #define&#45;&gt;CARACTER_COMUN -->
<g id="edge26" class="edge">
<title>#define-&gt;CARACTER_COMUN</title>
<path fill="none" stroke="#000000" d="M1360.9029,-367.9558C1374.6942,-410.1345 1415.6779,-512 1489.8352,-512 1489.8352,-512 1489.8352,-512 2774.3701,-512 2846.5377,-512 2927.77,-516.9542 2989.9918,-521.8031"/>
<polygon fill="#000000" stroke="#000000" points="2989.957,-525.3112 3000.2019,-522.611 2990.5092,-518.333 2989.957,-525.3112"/>
<text text-anchor="middle" x="2104.4638" y="-516.2" font-family="Times,serif" font-size="14.00" fill="#000000"> EOC</text>
</g>
<!-- #define_identificador -->
<g id="node8" class="node">
<title>#define_identificador</title>
<ellipse fill="#ffffff" stroke="#ffffff" cx="1971.6427" cy="-350" rx="94.3215" ry="18"/>
<text text-anchor="middle" x="1971.6427" y="-345.8" font-family="Times,serif" font-size="14.00" fill="#000000">#define_identificador</text>
</g>
<!-- #define_&#45;&gt;#define_identificador -->
<g id="edge7" class="edge">
<title>#define_-&gt;#define_identificador</title>
<path fill="none" stroke="#000000" d="M1674.098,-350C1722.9221,-350 1802.42,-350 1866.9646,-350"/>
<polygon fill="#000000" stroke="#000000" points="1867.1883,-353.5001 1877.1882,-350 1867.1882,-346.5001 1867.1883,-353.5001"/>
<text text-anchor="middle" x="1775.6241" y="-354.2" font-family="Times,serif" font-size="14.00" fill="#000000">c = '???'</text>
</g>
<!-- #define_&#45;&gt;*COMIENZO_DE_LINEA -->
<g id="edge17" class="edge">
<title>#define_-&gt;*COMIENZO_DE_LINEA</title>
<path fill="none" stroke="#000000" d="M1639.1182,-332.2602C1660.0003,-298.4237 1711.2008,-228 1775.6241,-228 1775.6241,-228 1775.6241,-228 2617.4096,-228 2768.0462,-228 2806.642,-227.137 2955.4912,-204 2978.5447,-200.4166 3003.4369,-194.8922 3025.5613,-189.3819"/>
<polygon fill="#000000" stroke="#000000" points="3026.6822,-192.7085 3035.5153,-186.8582 3024.9618,-185.9232 3026.6822,-192.7085"/>
<text text-anchor="middle" x="2215.7152" y="-232.2" font-family="Times,serif" font-size="14.00" fill="#000000">c = '/n'</text>
</g>
<!-- #define_&#45;&gt;CARACTER_COMUN -->
<g id="edge27" class="edge">
<title>#define_-&gt;CARACTER_COMUN</title>
<path fill="none" stroke="#000000" d="M1638.8836,-367.7662C1659.5299,-402.0533 1710.6001,-474 1775.6241,-474 1775.6241,-474 1775.6241,-474 2617.4096,-474 2768.1465,-474 2806.4059,-478.747 2955.4912,-501 2977.5238,-504.2887 3001.3111,-509.0846 3022.7509,-513.8809"/>
<polygon fill="#000000" stroke="#000000" points="3022.2171,-517.3488 3032.7443,-516.1538 3023.7695,-510.5232 3022.2171,-517.3488"/>
<text text-anchor="middle" x="2215.7152" y="-478.2" font-family="Times,serif" font-size="14.00" fill="#000000"> EOC</text>
</g>
<!-- #define_identificador_ -->
<g id="node9" class="node">
<title>#define_identificador_</title>
<ellipse fill="#ffffff" stroke="#ffffff" cx="2353.3648" cy="-350" rx="98.9781" ry="18"/>
<text text-anchor="middle" x="2353.3648" y="-345.8" font-family="Times,serif" font-size="14.00" fill="#000000">#define_identificador_</text>
</g>
<!-- #define_identificador&#45;&gt;#define_identificador_ -->
<g id="edge8" class="edge">
<title>#define_identificador-&gt;#define_identificador_</title>
<path fill="none" stroke="#000000" d="M2066.001,-350C2119.944,-350 2187.8434,-350 2244.0948,-350"/>
<polygon fill="#000000" stroke="#000000" points="2244.0955,-353.5001 2254.0955,-350 2244.0955,-346.5001 2244.0955,-353.5001"/>
<text text-anchor="middle" x="2160.0895" y="-354.2" font-family="Times,serif" font-size="14.00" fill="#000000">c = ' '</text>
</g>
<!-- #define_identificador&#45;&gt;*COMIENZO_DE_LINEA -->
<g id="edge18" class="edge">
<title>#define_identificador-&gt;*COMIENZO_DE_LINEA</title>
<path fill="none" stroke="#000000" d="M1994.2767,-332.3908C2028.2701,-307.7594 2095.4352,-266 2160.0895,-266 2160.0895,-266 2160.0895,-266 2617.4096,-266 2768.2585,-266 2810.3926,-277.2528 2955.4912,-236 2990.2296,-226.1236 3027.05,-208.0545 3053.6525,-193.4698"/>
<polygon fill="#000000" stroke="#000000" points="3055.5839,-196.4004 3062.6158,-188.4755 3052.1767,-190.2855 3055.5839,-196.4004"/>
<text text-anchor="middle" x="2491.0144" y="-270.2" font-family="Times,serif" font-size="14.00" fill="#000000">c = '/n'</text>
</g>
<!-- #define_identificador&#45;&gt;CARACTER_COMUN -->
<g id="edge28" class="edge">
<title>#define_identificador-&gt;CARACTER_COMUN</title>
<path fill="none" stroke="#000000" d="M1993.6489,-367.6109C2027.375,-392.7713 2094.8179,-436 2160.0895,-436 2160.0895,-436 2160.0895,-436 2617.4096,-436 2768.7161,-436 2812.5338,-426.4332 2955.4912,-476 2985.2303,-486.3113 3017.9555,-499.4552 3043.8846,-510.308"/>
<polygon fill="#000000" stroke="#000000" points="3042.5373,-513.5382 3053.1119,-514.1932 3045.2538,-507.0868 3042.5373,-513.5382"/>
<text text-anchor="middle" x="2491.0144" y="-440.2" font-family="Times,serif" font-size="14.00" fill="#000000"> EOC</text>
</g>
<!-- #define_identificador_texto -->
<g id="node10" class="node">
<title>#define_identificador_texto</title>
<ellipse fill="#ffffff" stroke="#ffffff" cx="2774.3701" cy="-350" rx="118.1004" ry="18"/>
<text text-anchor="middle" x="2774.3701" y="-345.8" font-family="Times,serif" font-size="14.00" fill="#000000">#define_identificador_texto</text>
</g>
<!-- #define_identificador_&#45;&gt;#define_identificador_texto -->
<g id="edge9" class="edge">
<title>#define_identificador_-&gt;#define_identificador_texto</title>
<path fill="none" stroke="#000000" d="M2452.6041,-350C2510.2895,-350 2583.6184,-350 2645.7002,-350"/>
<polygon fill="#000000" stroke="#000000" points="2645.9593,-353.5001 2655.9593,-350 2645.9593,-346.5001 2645.9593,-353.5001"/>
<text text-anchor="middle" x="2554.212" y="-354.2" font-family="Times,serif" font-size="14.00" fill="#000000">c = '???'</text>
</g>
<!-- #define_identificador_&#45;&gt;*COMIENZO_DE_LINEA -->
<g id="edge19" class="edge">
<title>#define_identificador_-&gt;*COMIENZO_DE_LINEA</title>
<path fill="none" stroke="#000000" d="M2439.8704,-341.1385C2571.3329,-327.2979 2815.1618,-300.0589 2900.6702,-280 2925.7754,-274.1107 2932.3689,-272.4157 2955.4912,-261 2993.5773,-242.1964 3033.7577,-214.585 3060.5426,-194.9106"/>
<polygon fill="#000000" stroke="#000000" points="3062.8026,-197.592 3068.7486,-188.8229 3058.632,-191.97 3062.8026,-197.592"/>
<text text-anchor="middle" x="2617.4096" y="-327.2" font-family="Times,serif" font-size="14.00" fill="#000000">c = '/n'</text>
</g>
<!-- #define_identificador_&#45;&gt;CARACTER_COMUN -->
<g id="edge29" class="edge">
<title>#define_identificador_-&gt;CARACTER_COMUN</title>
<path fill="none" stroke="#000000" d="M2435.636,-360.0458C2583.0128,-378.1505 2878.7993,-415.0258 2900.6702,-422 2961.3146,-441.3384 3023.99,-481.6863 3060.3559,-507.4977"/>
<polygon fill="#000000" stroke="#000000" points="3058.4169,-510.4143 3068.5803,-513.407 3062.5014,-504.7295 3058.4169,-510.4143"/>
<text text-anchor="middle" x="2617.4096" y="-388.2" font-family="Times,serif" font-size="14.00" fill="#000000"> EOC</text>
</g>
<!-- #define_identificador_texto&#45;&gt;*COMIENZO_DE_LINEA -->
<g id="edge20" class="edge">
<title>#define_identificador_texto-&gt;*COMIENZO_DE_LINEA</title>
<path fill="none" stroke="#000000" d="M2845.9727,-335.563C2864.1409,-330.8993 2883.3977,-325.0647 2900.6702,-318 2969.2892,-289.9339 3034.4378,-230.345 3068.0759,-196.2823"/>
<polygon fill="#000000" stroke="#000000" points="3070.6835,-198.6214 3075.1552,-189.0164 3065.6698,-193.7363 3070.6835,-198.6214"/>
<text text-anchor="middle" x="2933.0807" y="-316.2" font-family="Times,serif" font-size="14.00" fill="#000000">c = '/n'</text>
</g>
<!-- #define_identificador_texto&#45;&gt;CARACTER_COMUN -->
<g id="edge30" class="edge">
<title>#define_identificador_texto-&gt;CARACTER_COMUN</title>
<path fill="none" stroke="#000000" d="M2849.5416,-363.9731C2883.6728,-372.596 2923.4743,-385.9896 2955.4912,-406.2 3000.1864,-434.4134 3043.8008,-477.9958 3069.217,-505.4837"/>
<polygon fill="#000000" stroke="#000000" points="3066.8667,-508.1003 3076.1952,-513.1232 3072.0351,-503.3793 3066.8667,-508.1003"/>
<text text-anchor="middle" x="2933.0807" y="-410.2" font-family="Times,serif" font-size="14.00" fill="#000000"> EOC</text>
</g>
<!-- ATENDER_DEFINE -->
<g id="node14" class="node">
<title>ATENDER_DEFINE</title>
<ellipse fill="none" stroke="#000000" cx="3091.7922" cy="-348" rx="95.485" ry="18"/>
<text text-anchor="middle" x="3091.7922" y="-343.8" font-family="Times,serif" font-size="14.00" fill="#000000">ATENDER_DEFINE</text>
</g>
<!-- #define_identificador_texto&#45;&gt;ATENDER_DEFINE -->
<g id="edge31" class="edge">
<title>#define_identificador_texto-&gt;ATENDER_DEFINE</title>
<path fill="none" stroke="#000000" d="M2893.0178,-349.2524C2923.7101,-349.059 2956.5412,-348.8522 2986.4981,-348.6634"/>
<polygon fill="#000000" stroke="#000000" points="2986.5623,-352.1632 2996.54,-348.6002 2986.5181,-345.1633 2986.5623,-352.1632"/>
<text text-anchor="middle" x="2933.0807" y="-370" font-family="Times,serif" font-size="14.00" fill="#000000">c = '/n' </text>
<text text-anchor="middle" x="2933.0807" y="-353.2" font-family="Times,serif" font-size="14.00" fill="#000000"> ????</text>
</g>
<!-- POSIBLE_INCLUDE_DEFINE_UNDEF -->
<g id="node11" class="node">
<title>POSIBLE_INCLUDE_DEFINE_UNDEF</title>
<ellipse fill="none" stroke="#000000" cx="173.5581" cy="-350" rx="173.6161" ry="18"/>
<text text-anchor="middle" x="173.5581" y="-345.8" font-family="Times,serif" font-size="14.00" fill="#000000">POSIBLE_INCLUDE_DEFINE_UNDEF</text>
</g>
<!-- POSIBLE_INCLUDE_DEFINE_UNDEF&#45;&gt;#d -->
<g id="edge10" class="edge">
<title>POSIBLE_INCLUDE_DEFINE_UNDEF-&gt;#d</title>
<path fill="none" stroke="#000000" d="M347.3254,-350C372.3424,-350 395.7338,-350 413.9476,-350"/>
<polygon fill="#000000" stroke="#000000" points="414.0464,-353.5001 424.0464,-350 414.0463,-346.5001 414.0464,-353.5001"/>
<text text-anchor="middle" x="385.5813" y="-354.2" font-family="Times,serif" font-size="14.00" fill="#000000"> c = 'd'</text>
</g>
</g>
</svg>